<svg width="400" height="400" xmlns="http://www.w3.org/2000/svg" display="block"><g fill-rule="evenodd"><path d="M172.976 40.587c-.616.467-.648.59-.156.6.341.007.791-.15 1-.348.209-.199.74-.448 1.18-.554.645-.155.602-.201-.224-.239-.562-.025-1.372.218-1.8.541m50.924-.305c.495.096.9.341.9.546 0 .205.405.366.9.359.877-.012.881-.027.124-.6-.428-.323-1.238-.562-1.8-.533-.942.051-.952.069-.124.228m-61 2.394c.385.1 1.015.1 1.4 0 .385-.101.07-.183-.7-.183s-1.085.082-.7.183m72.3.007c.55.095 1.223.463 1.496.816.273.353.632.506.799.339.471-.47-1.128-1.444-2.271-1.384l-1.024.055 1 .174m-84.202 3.319c-.4.442-.608.922-.462 1.067.145.145.264.054.264-.202 0-.257.225-.473.5-.48.986-.025 2.198-1.187 1.238-1.187-.448 0-1.141.361-1.54.802m95.226-.215c1.015.769 1.61.776.976.013-.274-.33-.78-.6-1.125-.6-.503 0-.473.117.149.587m3.599 1.18c.838.613 1.217.546.793-.14-.145-.235-.557-.427-.916-.427-.546 0-.526.093.123.567m6.848 2.111c.479.094 1.086.429 1.349.746.263.317.861.555 1.329.53.775-.043.782-.064.079-.244-.424-.108-1.022-.447-1.328-.753-.307-.306-.949-.532-1.429-.503l-.871.055.871.169M137.2 51c-.428.516-.281.598 1.051.587 1.449-.012 1.499-.05.773-.6-.973-.735-1.204-.734-1.824.013m123.6-.449c0 .083.27.375.6.649.491.408.6.38.6-.151 0-.357-.27-.649-.6-.649-.33 0-.6.068-.6.151m-127.1 1.314c-.676.273-.636.935.057.935.307 0 .661-.27.788-.6.235-.613.038-.691-.845-.335m130.443.335c.33.33.793.6 1.028.6.656 0 .51-.683-.204-.957-1.093-.42-1.447-.266-.824.357m-113.711.251c-.018.358.238.875.568 1.149.33.274.625.971.654 1.549.052.988.066.995.233.118.097-.513-.084-1.233-.403-1.6s-.679-.937-.8-1.267c-.185-.502-.226-.493-.252.051M129.5 53.666c-.825.447-1.5.961-1.5 1.142 0 .272 3.425-1.321 3.967-1.847.486-.471-1.169.002-2.467.705m138.297-.013c1.098.445 2.223.998 2.5 1.227.277.23.502.261.5.069-.005-.555-3.063-2.151-4.076-2.127-.634.015-.299.274 1.076.831m-127.384.198c.026.709 1.187 1.956 1.187 1.274 0-.345-.27-.851-.6-1.125-.33-.274-.594-.341-.587-.149m-14.357 2.162c-.52.433-.772.787-.562.787.211 0 .799-.36 1.306-.8 1.193-1.035.499-1.023-.744.013M272 56c.507.44 1.099.8 1.315.8.216 0-.065-.36-.624-.8-.56-.44-1.151-.8-1.315-.8-.164 0 .117.36.624.8m-120 1.102c0 .22.27.624.6.898.335.278.6.321.6.098 0-.22-.27-.624-.6-.898-.335-.278-.6-.321-.6-.098m1.2 3.406c0 .334.27.71.6.837.33.126.6.078.6-.109 0-.186-.27-.562-.6-.836-.488-.405-.6-.385-.6.108m-10.4.21c0 .211.291.625.646.92.559.464.627.435.5-.218-.151-.777-1.146-1.387-1.146-.702m-30.344 2.895c-.52.433-.765.787-.545.787.22 0 .825-.354 1.345-.787.519-.432.764-.786.544-.786-.22 0-.825.354-1.344.786m-5.727 3.709a4.204 4.204 0 0 1-1.229.788c-.385.146-.7.451-.7.677 0 .602.626.505 1.2-.187.274-.33.727-.6 1.006-.6.28 0 .612-.27.739-.6.283-.739-.302-.784-1.016-.078m184.326.078c.127.33.399.6.604.6.494 0 2.855 1.665 3.261 2.3.176.275.581.5.9.5.704 0-.473-1.304-1.551-1.718-.368-.141-.669-.443-.669-.669 0-.227-.248-.413-.551-.413-.303 0-.775-.27-1.049-.6-.274-.33-.65-.6-.836-.6-.187 0-.235.27-.109.6m-144.627 1.899c-.015.384.498 1.824 1.141 3.2.643 1.376 1.249 2.951 1.346 3.501.168.957.178.952.231-.126.029-.62-.169-1.52-.441-2-.272-.481-.889-1.864-1.372-3.074-.482-1.21-.889-1.885-.905-1.501m-43.328.734c-.385.422-.548.767-.362.767.186 0 .664-.36 1.062-.8.398-.44.561-.785.362-.767-.199.019-.677.379-1.062.8m53.837.136c.035.66.325 1.24.663 1.331.401.107.448.051.14-.17-.252-.181-.551-.78-.663-1.33-.176-.861-.195-.838-.14.169M100.8 72.4c-.29.542-.295.8-.014.8.228 0 .414-.257.414-.571 0-.314.315-.653.7-.753.646-.169.647-.187.014-.23-.377-.025-.879.314-1.114.754m57.412 1.39c.202 2.035 1.388 4.064 1.388 2.376 0-.443-.199-1.005-.443-1.249-.244-.244-.6-1.045-.793-1.78-.293-1.118-.318-1.012-.152.653m-64.383 3.639c-.865.864-.788 1.077.171.478.44-.275.8-.636.8-.803 0-.461-.279-.368-.971.325m209.771-.458c0 .353 1.273 1.429 1.69 1.429.238 0 .017-.36-.49-.8-.926-.803-1.2-.947-1.2-.629m-153.919 1.011c.552.884.941.773.581-.165-.13-.339-.424-.617-.653-.617-.263 0-.237.287.072.782m10.182.742c.301 2.169.403 2.377 1.414 2.908.897.471.903.462.223-.305-.388-.438-.7-1.425-.7-2.216 0-.866-.224-1.511-.571-1.645-.452-.173-.528.09-.366 1.258M190 79.8c-.408.491-.38.6.151.6.357 0 .649-.27.649-.6 0-.33-.068-.6-.151-.6-.083 0-.375.27-.649.6m117.642.747c.747.741 1.438 1.276 1.535 1.189.195-.173-2.283-2.536-2.66-2.536-.128 0 .378.606 1.125 1.347M90.945 80.2c-.127.33-.481.6-.788.6-.306 0-.557.296-.557.658 0 .499.242.398 1-.42.994-1.073 1.194-1.438.787-1.438-.116 0-.316.27-.442.6m88.274.777c-.263.317-1.05.648-1.749.736l-1.27.159 1.271.064c.7.035 1.535-.199 1.857-.521.413-.413 1.744-.624 4.528-.716l3.944-.132-4.051-.083c-3.119-.065-4.161.049-4.53.493m35.725-.278c2.784.092 4.115.303 4.528.716.322.322 1.157.556 1.857.521l1.271-.064-1.27-.159c-.699-.088-1.486-.419-1.749-.736-.369-.444-1.411-.558-4.53-.493l-4.051.083 3.944.132M170.8 82.6c-.541.651-.411.733.567.357.348-.133.633-.403.633-.6 0-.553-.648-.422-1.2.243m-8.8.567c0 .405 1.556 1.415 1.795 1.165.07-.072-.306-.455-.834-.851-.529-.395-.961-.536-.961-.314m-76.119 1.55c-.814.834-1.481 1.67-1.481 1.858 0 .188.405-.09.9-.618a21.61 21.61 0 0 1 2.054-1.858c.654-.51.906-.899.581-.899-.315 0-1.239.683-2.054 1.517m80.519-1.146c0 .204-.315.453-.7.553-.527.138-.477.195.2.23.554.028.9-.185.9-.554 0-.33-.09-.6-.2-.6-.11 0-.2.167-.2.371M311.2 84c.507.44 1.075.8 1.261.8.187 0 .339.27.339.6 0 .33.257.6.571.6.314 0 .653.315.753.7.148.565.192.577.23.064.051-.702-2.838-3.564-3.598-3.564-.263 0-.063.36.444.8m-159.6.195c0 .144.289.552.643.905.591.591.632.583.5-.095-.132-.683-1.143-1.399-1.143-.81M234 85c.274.33 1.061.599 1.749.598l1.251-.003-1.146-.597c-1.56-.814-2.53-.813-1.854.002m4.4 1.2c0 .33.292.6.649.6.531 0 .559-.109.151-.6-.274-.33-.566-.6-.649-.6-.083 0-.151.27-.151.6m2.176 1.213c.428.323 1.103.587 1.502.587s1.397.36 2.218.8c.82.44 1.848.8 2.283.8.527 0 .269-.266-.779-.8-.863-.44-1.779-.8-2.036-.8-.256 0-.69-.27-.964-.6-.274-.33-1.061-.594-1.749-.587-1.187.012-1.211.043-.475.6m-88.629 1.299c-.332.473-1.131 1.136-1.775 1.472l-1.172.611 1.03.003c1.139.002 2.954-1.647 2.688-2.444-.111-.333-.372-.212-.771.358M316.6 89.6c.341.66.796 1.2 1.01 1.2.614 0 .455-.8-.21-1.055-.33-.127-.6-.481-.6-.788 0-.306-.185-.557-.41-.557-.234 0-.143.517.21 1.2M79.8 91.422c-2.15 2.408-2.242 2.59-.602 1.178.767-.66 1.457-1.338 1.534-1.507.077-.169.406-.574.732-.9.326-.326.445-.587.265-.579-.181.008-1.049.822-1.929 1.808m167.8-1.465c0 .374.95.843 1.709.843.244 0 .095-.264-.333-.587-.894-.677-1.376-.767-1.376-.256m-170.836 4.36C75.821 95.418 75.519 96 75.89 96c.186 0 .656-.54 1.046-1.2.802-1.357.735-1.543-.172-.483m63.268.396c-.018.282-.437.676-.932.875-.503.202-.635.37-.3.381.934.029 1.72-.62 1.48-1.223-.162-.409-.225-.417-.248-.033m118.38.16c-.012.672 1.436 1.412 1.885.964.13-.131-.055-.237-.41-.237-.356 0-.831-.315-1.055-.7-.372-.639-.409-.641-.42-.027M192.8 96.5l-1 .45 1.149.156c.632.086 1.343-.038 1.58-.275.256-.256 2.23-.431 4.871-.431 2.641 0 4.615.175 4.871.431.237.237.948.362 1.58.277l1.149-.154-1.126-.477c-1.45-.614-11.696-.596-13.074.023m-9.988 1.084c-.324.205-.471.491-.326.635.144.144.674-.026 1.177-.378.986-.691.207-.926-.851-.257m32.212.203c1.015.769 1.61.776.976.013-.274-.33-.78-.6-1.125-.6-.503 0-.473.117.149.587M132.8 99c-.405.488-.385.6.108.6.334 0 .71-.27.837-.6.126-.33.078-.6-.109-.6-.186 0-.562.27-.836.6m43.2-.308c-.33.125-.7.38-.822.565-.122.185-1.112.455-2.2.6-1.088.144-2.338.526-2.778.848-.769.564-.761.576.2.317.55-.149 2.08-.531 3.4-.85 1.32-.319 2.76-.752 3.2-.962.44-.21 1.34-.451 2-.536.796-.102.594-.164-.6-.182-.99-.016-2.07.074-2.4.2m43.8-.047c.66.101 1.56.355 2 .565.44.21 1.88.643 3.2.962 1.32.319 2.85.691 3.4.827l1 .247-1-.568c-.55-.313-1.805-.691-2.788-.842-.983-.15-1.912-.474-2.063-.719-.152-.245-1.327-.492-2.612-.55-1.285-.057-1.797-.022-1.137.078m-147.818 2.189c-.246.459-.342.939-.214 1.067.127.128.232.022.232-.234 0-.257.27-.467.6-.467.33 0 .6-.27.6-.6 0-.87-.699-.736-1.218.234M325.6 100.6c0 .33.292.6.649.6.531 0 .559-.109.151-.6-.274-.33-.566-.6-.649-.6-.083 0-.151.27-.151.6m-195.656.587c-.519.432-.747.792-.506.8.241.007.764-.347 1.162-.787.926-1.024.566-1.031-.656-.013m-2.769 2.441c-.756.666-1.015 1.025-.575.798 1.225-.632 2.364-1.595 2.146-1.814-.108-.107-.815.35-1.571 1.016m36.28-.628c-.126.33-.078.6.109.6.186 0 .562-.27.836-.6.405-.488.385-.6-.108-.6-.334 0-.71.27-.837.6m70.545-.449c0 .083.27.375.6.649.491.408.6.38.6-.151 0-.357-.27-.649-.6-.649-.33 0-.6.068-.6.151m37.417 1.145c.17.437 1.995 1.736 3.176 2.259.59.261-.642-.833-2.093-1.859-.703-.497-1.19-.677-1.083-.4m57.747.637c.553 1.034 1.636 1.896 1.636 1.303 0-.253-.27-.565-.6-.691-.33-.127-.6-.481-.6-.788 0-.306-.186-.557-.414-.557-.278 0-.285.242-.022.733M152 108.4l-1 .32 1.1.04c.605.022 1.1-.14 1.1-.36 0-.22-.045-.382-.1-.36-.055.022-.55.184-1.1.36m93.6.055c0 .19.45.345 1 .345s1-.069 1-.153c0-.085-.45-.24-1-.345-.55-.105-1-.036-1 .153m-96.216.772c-.145.234-.168.522-.051.64.287.286 1.067-.219 1.067-.691 0-.511-.691-.477-1.016.051m99.016.173c.274.33.65.6.836.6.187 0 .235-.27.109-.6-.127-.33-.503-.6-.837-.6-.493 0-.513.112-.108.6m-130.342 1.207c-1.223 1.29-.814 1.285.58-.007.593-.55.918-.997.72-.993-.197.004-.782.454-1.3 1M64.3 111.1c-.266.605-.712 1.244-.992 1.42-.279.176-.508.489-.508.696 0 .207.36.068.8-.309.44-.377.8-.856.8-1.064 0-.209.298-.709.662-1.112.409-.452.482-.731.191-.731-.258 0-.688.495-.953 1.1m186.605-.424c.372.372.788.564.926.427.393-.394-.211-1.103-.94-1.103-.611 0-.61.053.014.676m29.495.241c.33.286.847.781 1.149 1.101.47.498.486.459.111-.271-.241-.469-.758-.964-1.149-1.101-.619-.216-.633-.181-.111.271m-135.816.71c-.424.686-.045.753.793.14.649-.474.669-.567.123-.567-.359 0-.771.192-.916.427m108.216-.269c0 .087.945.748 2.1 1.469 1.155.721 2.685 1.855 3.4 2.521.715.665 1.3 1.059 1.3.876 0-.615-3.978-3.824-4.741-3.824-.205 0-.477-.27-.604-.6-.197-.513-1.455-.895-1.455-.442m-110.6 1.964c-.66.483-1.344 1.103-1.52 1.378-.176.275-.581.5-.9.5-.319 0-.58.291-.58.647 0 .475.411.289 1.551-.7.852-.741 1.969-1.662 2.481-2.047.512-.385.759-.69.549-.678-.209.012-.921.417-1.581.9m193.538.796c.037.615.345 1.115.755 1.222.548.143.613.043.313-.479-.968-1.685-1.13-1.798-1.068-.743m-273.71.448c-.632.762-.443 1.138.332.659.296-.183.464-.553.374-.823-.116-.348-.32-.301-.706.164M284 114.413c0 .213.27.387.6.387.33 0 .6.27.6.6 0 .33.186.6.414.6.282 0 .285-.241.011-.753-.447-.836-1.625-1.441-1.625-.834m-171.968 1.802c-.018.228-.852 1.283-1.855 2.344-1.002 1.061-1.712 2.039-1.578 2.173.134.134.729-.379 1.322-1.14.594-.761 1.405-1.712 1.804-2.113s.638-.943.532-1.204c-.107-.261-.208-.288-.225-.06m-51.365.452c-.383.382-.329.933.09.933.197 0 .461-.27.588-.6.234-.61-.192-.819-.678-.333m227.592 2.256c.701.93 2.541 2.472 2.541 2.13 0-.27-2.746-3.053-3.012-3.053-.124 0 .088.415.471.923m-156.169 2.484c-.721.766-1.155 1.393-.965 1.393.191 0 .92-.63 1.62-1.4.701-.77 1.135-1.397.965-1.393-.171.004-.9.634-1.62 1.4M266 121.4c.746.77 1.51 1.4 1.698 1.4.187 0-.271-.63-1.019-1.4-.748-.77-1.512-1.4-1.698-1.4-.186 0 .273.63 1.019 1.4m-159.608 1.608c-.967.986-1.61 1.792-1.428 1.792.452 0 3.595-3.174 3.368-3.401-.1-.1-.973.624-1.94 1.609m185.208-.345c0 .213.54.786 1.2 1.274.957.707 1.2.763 1.2.275 0-.337-.211-.612-.469-.612-.257 0-.797-.298-1.2-.662-.402-.364-.731-.488-.731-.275m50.432 2.948c-.018.336.328.919.768 1.296s.8.516.8.309c0-.207-.244-.52-.541-.696-.298-.176-.644-.59-.769-.92-.199-.526-.231-.525-.258.011m-238.817 1.571c-.705.89-1.132 1.618-.949 1.618.441 0 2.667-2.8 2.421-3.046-.105-.105-.767.537-1.472 1.428m21.985.418c-.739.66-1.154 1.2-.921 1.2.233 0 .647-.27.921-.6.274-.33.716-.6.982-.6.267 0 .485-.27.485-.6 0-.76.105-.803-1.467.6m149.194 1.394c.743.767 1.443 1.302 1.556 1.189.216-.215-2.216-2.583-2.653-2.583-.14 0 .354.627 1.097 1.394m22.171-.294c.36.715.831 1.3 1.045 1.3.215 0 .39.27.39.6 0 .33.305.6.678.6.514 0 .344-.364-.698-1.5a157.47 157.47 0 0 1-1.725-1.9c-.19-.22-.051.185.31.9m-242.89.484c-.997 1.349-1.192 2.39-.275 1.473.33-.33.6-.734.6-.897 0-.163.298-.626.662-1.029.364-.402.488-.731.275-.731-.213 0-.78.533-1.262 1.184m290.611-.084c.857 1.339 1.714 2.266 1.714 1.853 0-.478-1.765-2.947-2.109-2.95-.17-.002.007.492.395 1.097M122.6 130.4c-.341.66-.796 1.2-1.01 1.2-.215 0-.39.186-.39.413 0 .228-.558.96-1.241 1.627-.682.667-1.127 1.325-.989 1.464.138.138.781-.369 1.429-1.127a311.76 311.76 0 0 1 1.789-2.077c.337-.385.612-.88.612-1.1 0-.22.27-.4.6-.4.33 0 .6-.27.6-.6 0-.994-.74-.677-1.4.6m-70.533 1.715c-.68.825-.476 1.994.268 1.529.294-.184.474-.749.4-1.255-.121-.828-.189-.856-.668-.274m225.148.141c.022.497 2.774 3.621 2.77 3.144-.002-.22-.629-1.095-1.394-1.944-.765-.849-1.384-1.389-1.376-1.2m68.785.495c0 .413.27.975.6 1.249.661.549.836-.12.357-1.367-.335-.873-.957-.796-.957.118m-45.525 1.674c.096.289.411.604.7.7.3.1.45-.05.35-.35-.096-.289-.411-.604-.7-.7-.3-.1-.45.05-.35.35m-249.808.642c-.607.607-.295 1.855.333 1.333.33-.274.6-.746.6-1.049 0-.583-.487-.731-.933-.284m296.533.235c0 .33.27.824.6 1.098.488.405.6.386.6-.102 0-.33-.27-.824-.6-1.098-.488-.405-.6-.386-.6.102m-250.9 1.883c-.385.375-.7.892-.7 1.149 0 .256-.27.466-.6.466-.33 0-.6.27-.6.6 0 .982.781.682 1.304-.5.267-.605.758-1.31 1.09-1.567.333-.257.515-.549.405-.649-.109-.099-.514.126-.899.501m205.543-.218c.133.348.418.633.633.633.526 0 .197-.909-.401-1.108-.293-.098-.382.085-.232.475m-252.42 1.522c-.343.489-.598 1.344-.569 1.9l.055 1.011.183-.971c.1-.534.456-1.389.791-1.9.778-1.187.368-1.223-.46-.04M191.6 138c0 .22-.3.4-.667.4-.366 0-.555.112-.418.248.36.36 2.285-.192 2.285-.656 0-.215-.27-.392-.6-.392-.33 0-.6.18-.6.4m14.4.2c.274.33.971.579 1.549.554.678-.03.802-.112.351-.23-.385-.1-.7-.349-.7-.553 0-.204-.382-.371-.849-.371-.709 0-.767.099-.351.6m142.4.308c0 .334.27.71.6.837.33.126.6.078.6-.109 0-.186-.27-.562-.6-.836-.488-.405-.6-.385-.6.108m-164.224.879c-.427.323-1.136.614-1.576.647-.704.052-.714.081-.08.246.395.102 1.138-.088 1.649-.423.511-.335 1.807-.677 2.88-.761l1.951-.152-2.024-.072c-1.26-.045-2.316.149-2.8.515m27.978-.296c.855.088 1.813.419 2.129.735.316.316 1.056.556 1.646.534l1.071-.04-1-.295c-.55-.163-.969-.463-.931-.668.038-.204-.952-.384-2.2-.399-1.43-.018-1.694.031-.715.133m-96.972.943c-.635 1.187-.313 1.263.537.127.395-.529.536-.961.314-.961-.223 0-.606.375-.851.834m167.756-.103c.364.403.662.85.662.993 0 .144.63.91 1.4 1.703.881.908 1.4 1.217 1.4.836 0-.333-.45-.959-1-1.392-.55-.432-1-1.039-1-1.349 0-.73-.802-1.522-1.542-1.522-.48 0-.466.128.08.731m21.094-.064c-.061.903.46 1.733 1.087 1.733.577 0 .577-.045.003-.5-.346-.275-.726-.77-.844-1.1-.118-.33-.229-.39-.246-.133m-125.409 1.166c-.649.474-.669.567-.123.567.359 0 .771-.192.916-.427.424-.686.045-.753-.793-.14m171.031.018c-.029.468.216 1.075.546 1.349.415.344.6.359.6.049 0-.247-.167-.449-.372-.449s-.45-.405-.546-.9c-.166-.862-.175-.864-.228-.049m-301.622 1.288c-.653 1.221-.518 1.561.209.524.352-.503.547-1.009.432-1.123-.114-.115-.403.155-.641.599m65.068.094c-.828.908-.891 1.215-.191.947.58-.223 1.657-1.797 1.194-1.747-.166.019-.618.379-1.003.8m109.7-.424c0 .229.278.523.617.653.938.36 1.049-.029.165-.581-.495-.309-.782-.335-.782-.072m64.518 3.58c.247.654.673 1.276.947 1.381.336.129.276-.255-.184-1.18-.838-1.686-1.377-1.828-.763-.201m-56.906.084c-.012.672 1.436 1.412 1.885.964.13-.131-.055-.237-.41-.237-.356 0-.831-.315-1.055-.7-.372-.639-.409-.641-.42-.027m-183.607.718c-.346.645-.311.748.186.557.335-.128.609-.484.609-.791 0-.781-.299-.693-.795.234m116.413 2.489c-1.002.736-1.525 1.351-1.233 1.448a.707.707 0 0 0 .786-.281c.153-.248.887-.9 1.631-1.449.745-.549 1.174-.998.955-.998-.22 0-1.182.576-2.139 1.28m71.658.072c1.032.796 2.011 1.448 2.176 1.448.617 0-2.092-2.301-3.052-2.592-.72-.219-.475.102.876 1.144M90.1 148.623c-.773.84-.636 1.684.146.902.356-.356.581-.826.5-1.046-.084-.232-.356-.172-.646.144m19.2-.335c-.275.098-.5.447-.5.774 0 .505.098.497.648-.052.704-.704.642-1.004-.148-.722m179.5.076c0 .186.27.562.6.836.488.405.6.385.6-.108 0-.334-.27-.71-.6-.837-.33-.126-.6-.078-.6.109m19.2.165c0 .322.27.689.6.816.33.126.6.133.6.014 0-.119-.27-.486-.6-.816-.52-.521-.6-.522-.6-.014m-262.557 1.704c-.347.903-.314.969.357.712.33-.127.6-.481.6-.788 0-.758-.657-.706-.957.076m62.329 1.154c-.356.543-.585 1.156-.51 1.362.076.206.449-.239.83-.987.805-1.586.617-1.805-.32-.375m201.445-.316c-.01.48.24 1.129.554 1.443.314.314.693 1.22.842 2.014.271 1.445 1.412 2.968 1.364 1.821-.043-1.024-2.743-6.187-2.76-5.278m-19.217-.12c0 .083.27.375.6.649.491.408.6.38.6-.151 0-.357-.27-.649-.6-.649-.33 0-.6.068-.6.151m-245.862 2.866c-.36.938.029 1.049.581.165.309-.495.335-.782.072-.782-.229 0-.523.278-.653.617m248.262 1.012c0 .34.264.967.587 1.395.715.945.844 3.966.151 3.538-.286-.177-.353-.11-.176.176.157.254.095.462-.138.462s-.424.257-.424.572c0 .315-.405.65-.9.746l-.9.173.9.055c1.403.084 2.5-1.296 2.5-3.147 0-.881-.36-2.274-.8-3.095-.44-.82-.8-1.214-.8-.875m-205.14 1.037c-.641.695-.461 1.029.3.559.296-.183.471-.516.389-.739-.086-.236-.377-.16-.689.18m267.54 1.891c0 .307.27.661.6.788.671.257.704.191.357-.712-.3-.782-.957-.834-.957-.076M246 158.4c.235.44.63.8.876.8s.122-.36-.276-.8c-.398-.44-.792-.8-.876-.8-.084 0 .041.36.276.8m-160.4 1.375c0 1.511.541 1.657.91.246.114-.435-.044-1-.351-1.255-.461-.383-.559-.207-.559 1.009m-43.091.625c0 .99.078 1.395.173.9a5.661 5.661 0 0 0 0-1.8c-.095-.495-.173-.09-.173.9m270.12-1.078c-.335.73.82 3.478 1.462 3.478.547 0 .328-1.107-.264-1.334-.315-.121-.639-.815-.719-1.543-.118-1.065-.212-1.182-.479-.601m-117.167 2.609c-.364.403-.657.898-.65 1.1.007.203.196.054.42-.331.293-.503.916-.7 2.211-.7 1.101 0 1.708-.156 1.557-.4-.42-.679-2.828-.453-3.538.331m4.138.467c0 .206.356.564.791.797.635.34.747.309.569-.155-.258-.673-1.36-1.193-1.36-.642m89.2.202c-.541.651-.411.733.567.357.348-.133.633-.403.633-.6 0-.553-.648-.422-1.2.243m-141.133 1.777c-.697.867-1.267 1.707-1.267 1.868 0 .161-.298.621-.662 1.024-.58.641-.586.731-.043.731.34 0 .736-.468.879-1.041.144-.572.793-1.607 1.442-2.3 1.038-1.107 1.463-1.859 1.051-1.859-.073 0-.703.709-1.4 1.577m101.946-1.298c-.014.513 1.698 2.521 2.149 2.521.148 0 .082-.225-.146-.5-.229-.275-.77-.95-1.203-1.5-.432-.55-.792-.784-.8-.521m-208.253 1.14c-.141.56-.144 1.13-.008 1.266.136.137.248-.106.248-.538 0-.433.216-1.003.48-1.267.365-.365.367-.48.008-.48-.26 0-.588.458-.728 1.019m243.46-.04c-.554.59-1.496 1.04-2.37 1.133l-1.45.154 1.471.067c.861.039 1.723-.184 2.077-.538.333-.333 1.16-.717 1.837-.852 1.632-.326 1.964-.943.508-.943-.707 0-1.51.379-2.073.979m71.18-.655c0 .215.285.5.633.633.39.15.573.061.475-.232-.199-.598-1.108-.927-1.108-.401m-41.6.923c0 .55.264 1.349.587 1.777.567.749.588.741.588-.224 0-.55-.265-1.349-.588-1.776-.567-.75-.587-.742-.587.223m-230.346.058c-.054.709-.17.997-1.368 3.395-.982 1.968-.221 1.557.848-.458.523-.987.854-2.171.754-2.7-.112-.591-.199-.679-.234-.237m105.158.279c-.324.205-.455.507-.291.67.164.164.602-.006.974-.378.723-.723.29-.907-.683-.292M357.293 166c0 .77.082 1.085.183.7.1-.385.1-1.015 0-1.4-.101-.385-.183-.07-.183.7m-78.046.255c-.478.54-.456.605.167.484.396-.076.795-.364.886-.639.23-.69-.384-.6-1.053.155m-76.309.476c.364.403.662.943.662 1.2 0 .258.185.469.41.469.234 0 .143-.517-.21-1.2-.341-.66-.824-1.2-1.072-1.2-.259 0-.17.312.21.731m49.065-.492c.001.198.36.901.797 1.561.496.749.796.96.797.561.002-.351-.357-1.054-.797-1.561-.44-.507-.799-.76-.797-.561M100.893 168c0 .77.082 1.085.183.7.1-.385.1-1.015 0-1.4-.101-.385-.183-.07-.183.7m83.207-.924c.385.1 1.015.1 1.4 0 .385-.101.07-.183-.7-.183s-1.085.082-.7.183m88.083 1.352c-.146.235-.651.584-1.124.775l-.859.346.88.026c.484.014 1.024-.229 1.2-.54.176-.311.86-.644 1.52-.74l1.2-.175-1.276-.06c-.702-.033-1.396.133-1.541.368m-231.751 1.911c-.237.445-.431 1.045-.43 1.335.002.289.275.004.608-.634.332-.637.526-1.238.43-1.334-.097-.096-.37.189-.608.633m227.392-.126c-.587.443-.63.587-.177.587.33 0 .949-.264 1.377-.587.586-.444.629-.588.176-.588-.33 0-.949.265-1.376.588m-167.792.526c-.653 1.221-.518 1.561.209.524.352-.503.547-1.009.432-1.123-.114-.115-.403.155-.641.599m73.744.979c-.448 1.167.02 12.415.524 12.582.597.199.687-1.337.1-1.7-.229-.141-.4-2.196-.4-4.8 0-2.604.171-4.659.4-4.8.527-.326.517-1.8-.013-1.8-.226 0-.501.233-.611.518m116 .904c-.764.612-.763.616.024.254.44-.202 1.07-.468 1.4-.59.518-.193.515-.227-.024-.254-.342-.018-.972.248-1.4.59m9.024-.255c0 .845 1.66 5.623 2.034 5.854.201.124.399 1.251.44 2.503l.074 2.276.146-2.065c.107-1.526-.069-2.464-.674-3.594-.451-.841-.82-2.185-.82-2.986 0-.807-.268-1.679-.6-1.955-.437-.363-.6-.372-.6-.033m18.006.044c.009.81.692 1.824 1.013 1.503.144-.144-.026-.674-.378-1.177-.413-.59-.639-.706-.635-.326m-235.473 1.018c-.252.534-.307.971-.122.971.347 0 .97-1.553.721-1.801-.077-.077-.347.296-.599.83m17.715-.706c-.11.178-.324 1.254-.475 2.393-.151 1.139-.521 2.275-.824 2.526-.34.282-.526 1.161-.489 2.307l.06 1.851.256-1.6c.14-.88.543-2.23.895-3 .984-2.154 1.469-5.921.577-4.477m186.819 1.144c-.383.382-.329.933.09.933.197 0 .461-.27.588-.6.234-.61-.192-.819-.678-.333M210 175.4c0 .33.292.6.649.6.531 0 .559-.109.151-.6-.274-.33-.566-.6-.649-.6-.083 0-.151.27-.151.6m71.784-.173c-.424.686-.045.753.793.14.649-.474.669-.567.123-.567-.359 0-.771.192-.916.427m-242.484.754c-.784 1.267-.669 2.438.128 1.301.345-.493.57-1.17.5-1.503-.101-.478-.234-.435-.628.202m41.231 1.819c.002 1.54.074 2.121.161 1.291.087-.83.085-2.09-.003-2.8-.089-.71-.16-.031-.158 1.509m197.33-.712c-.846.602-1.311 1.162-1.04 1.252.269.09.653-.13.854-.488.201-.359.605-.652.899-.652.294 0 1.05-.269 1.68-.598l1.146-.597-1.005-.003c-.552-.001-1.693.488-2.534 1.086m80.939-.712c0 .207.18.488.4.624.22.136.414.642.432 1.124.017.482.125.643.239.359.285-.712-.198-2.483-.679-2.483a.386.386 0 0 0-.392.376m-147.6.343c0 .265.151.481.336.481.185 0 .815.673 1.4 1.495.585.823 1.058 1.228 1.051.9-.015-.71-2.787-3.571-2.787-2.876m61.612 2.065c-.324.205-.455.507-.291.67.164.164.602-.006.974-.378.723-.723.29-.907-.683-.292M318.093 180c0 .77.082 1.085.183.7.1-.385.1-1.015 0-1.4-.101-.385-.183-.07-.183.7m-178.663.898c-.431.802-.634 1.84-.529 2.702.164 1.341.174 1.328.235-.3.035-.935.232-1.7.437-1.7.4 0 1.014-1.546.728-1.833-.095-.094-.487.414-.871 1.131m179.256 1.161c.294.356.539 2.317.622 4.965l.136 4.376-.022-4.767c-.018-3.87-.135-4.805-.622-4.965-.486-.16-.507-.086-.114.391M262.8 183c-.408.491-.38.6.151.6.357 0 .649-.27.649-.6 0-.33-.068-.6-.151-.6-.083 0-.375.27-.649.6m-1.831 1.137c-.114.296-.151 1.871-.083 3.5l.123 2.963.195-3.501c.195-3.488.156-3.982-.235-2.962m-164.726.496c-.134.348-.242 1.113-.241 1.7l.003 1.067.597-1.146c.673-1.288.775-2.254.241-2.254-.197 0-.467.285-.6.633M301.6 184.6c0 .33.18.6.4.6.22 0 .425.585.454 1.3.043 1.009.095 1.089.234.359.226-1.19-.18-2.859-.696-2.859-.215 0-.392.27-.392.6m-84 .57c0 .189.27.448.6.575.33.126.6.499.6.828 0 .33.354.788.786 1.019.736.395.73.334-.1-.963-.867-1.356-1.886-2.144-1.886-1.459m-79.816.857c-.145.234-.168.522-.051.64.287.286 1.067-.219 1.067-.691 0-.511-.691-.477-1.016.051m37.195 26.862c.03 17.034.155 22.405.53 22.78.388.388.491-2.028.491-11.509 0-7.328-.153-12.153-.393-12.393-.23-.23-.45-4.704-.53-10.78-.075-5.713-.119-.357-.098 11.902m47.896-21.264c.096.289.411.604.7.7.3.1.45-.05.35-.35-.096-.289-.411-.604-.7-.7-.3-.1-.45.05-.35.35m-85.615 2.195c-.033.671-.276 1.436-.54 1.7-.373.373-.371.48.013.48.664 0 .963-.893.757-2.266l-.17-1.134-.06 1.22m123.94.055c0 .455.27 1.051.6 1.325.814.676.805-.295-.013-1.376-.577-.764-.587-.763-.587.051m58.4 1.025c0 .359.192.771.427.916.686.424.753.045.14-.793-.474-.649-.567-.669-.567-.123m-91.825 2.6c.355.715.821 1.3 1.035 1.3.568 0 .5-.152-.645-1.438l-1.036-1.162.646 1.3m-149.313 1.939c-.453.512-.438.812.091 1.885l.629 1.276.009-1.9c.01-2.12.018-2.106-.729-1.261m155.201 5.761c.488.66.948 1.2 1.022 1.2.075 0-.144-.54-.485-1.2-.341-.66-.801-1.2-1.022-1.2-.221 0-.003.54.485 1.2m86.432-.335c-.272.272-.495.859-.495 1.304 0 .774.027.77.63-.09.728-1.04.624-1.973-.135-1.214m-183.43.735c.255.33.543 1.14.64 1.8l.175 1.2.06-1.251c.037-.772-.208-1.461-.64-1.8-.609-.478-.64-.471-.235.051m125.035.457c-.275.276-.486.962-.468 1.523.019.626.119.788.26.42.125-.33.399-.712.607-.848.209-.136.317-.552.24-.923-.112-.543-.238-.577-.639-.172m-24.9 3.294c0 .083.27.375.6.649.491.408.6.38.6-.151 0-.357-.27-.649-.6-.649-.33 0-.6.068-.6.151m82.473 4.849c-.07 3.124-.269 4.625-.686 5.176-.323.428-.56 1.328-.527 2l.06 1.224.173-1.2c.096-.66.435-1.491.754-1.847.453-.504.552-1.647.452-5.2l-.128-4.553-.098 4.4M204 211.134c0 .17.62.91 1.377 1.644 1.156 1.12 1.342 1.197 1.154.478-.124-.471-.473-.856-.778-.856a.557.557 0 0 1-.553-.557c0-.307-.27-.661-.6-.788-.33-.126-.6-.091-.6.079m56.861 1.466c-.047 1.1-.351 2.349-.674 2.776-.323.428-.566 1.148-.541 1.6.046.804.051.805.242.024.107-.44.456-1.095.776-1.456.402-.454.535-1.318.432-2.8l-.148-2.144-.087 2m-19.346 2.219c.724.75 1.418 1.773 1.544 2.273.125.499.419.908.653.908.234 0 .754.298 1.157.662.402.364.731.488.731.275 0-.213-.54-.786-1.2-1.274-.66-.488-1.203-1.107-1.207-1.375-.007-.502-1.329-1.876-2.393-2.488-.33-.19-.008.269.715 1.019m60.939-.119c-.029.715-.234 1.3-.454 1.3s-.4.27-.4.6c0 .33.177.6.392.6.516 0 .922-1.669.696-2.859-.139-.73-.191-.65-.234.359m-206.452.324c-.001.672.262 1.572.585 2 .845 1.116.856-.466.015-2.078l-.597-1.146-.003 1.224m41.598 1c0 .713.167 1.12.4.976.22-.136.4-.687.4-1.224 0-.537-.18-.976-.4-.976-.22 0-.4.551-.4 1.224m70.522-.51c.373.412.678.92.678 1.129 0 .208.38.705.845 1.103.933.798.904.657-.255-1.24-.434-.711-1.05-1.394-1.368-1.517-.427-.165-.401-.029.1.525M79.2 218.502c0 .33.27.824.6 1.098.488.405.6.386.6-.102 0-.33-.27-.824-.6-1.098-.488-.405-.6-.386-.6.102m222.076 1.812c-.042 1.163-.336 2.513-.654 3-.556.853-1.251 3.173-1.703 5.686-.119.66-.492 1.515-.83 1.9-.372.425-.435.7-.161.7.752 0 1.805-2.46 2.106-4.923.156-1.278.582-2.653.946-3.055.501-.553.627-1.305.517-3.077l-.146-2.345-.075 2.114m-204.022.553c-.061 1.645.253 2.733.789 2.733.467 0 .461-1.332-.009-1.82-.202-.209-.447-.83-.546-1.38-.133-.745-.193-.626-.234.467m31.346.177c-.784.606-.78.616.169.487.532-.072 1.042-.356 1.133-.631.221-.671-.326-.611-1.302.144M80.531 223.4c.002 1.54.074 2.121.161 1.291.087-.83.085-2.09-.003-2.8-.089-.71-.16-.031-.158 1.509m44.892-1.167c-.649.474-.669.567-.123.567.359 0 .771-.192.916-.427.424-.686.045-.753-.793-.14m87.452-.208c.096.289.411.604.7.7.3.1.45-.05.35-.35-.096-.289-.411-.604-.7-.7-.3-.1-.45.05-.35.35m31.953.941c-.298.359-.423.772-.278.917.373.374 1.172-.516.98-1.092-.11-.331-.327-.277-.702.175m114.832.11c-.033.482-.24.988-.46 1.124-.22.136-.4.637-.4 1.113v.865l.626-.894c.345-.492.552-1.386.46-1.989-.128-.845-.18-.895-.226-.219m-320.846.975c-.008.578.256 1.275.586 1.549.798.663.798-.204 0-1.6l-.572-1-.014 1.051m59.763 1.849c.339 2.407 1.289 4.5 2.042 4.5.452 0 .418-.163-.154-.735-.405-.405-.954-1.845-1.22-3.2-.571-2.901-1.055-3.311-.668-.565m20.047-1.287c-.641.485-.665.587-.133.587.935 0 1.909-.43 1.909-.843 0-.536-.9-.407-1.776.256m123.2 0c-.641.485-.665.587-.133.587.935 0 1.909-.43 1.909-.843 0-.536-.9-.407-1.776.256m-26.266.896c.411.754 1.972 2.491 2.239 2.491.343 0-1.619-2.765-2.106-2.969-.374-.156-.409-.029-.133.478m-99.335.324c-.649.474-.669.567-.123.567.359 0 .771-.192.916-.427.424-.686.045-.753-.793-.14M238.8 225.8c-.405.488-.386.6.102.6.33 0 .824-.27 1.098-.6.405-.488.386-.6-.102-.6-.33 0-.824.27-1.098.6m-125.98 1.176c-.263.317-.87.652-1.349.746l-.871.169.871.055c.48.029 1.122-.197 1.429-.503.306-.306.904-.645 1.328-.753.703-.18.696-.201-.079-.244-.468-.025-1.066.213-1.329.53M236 227c-.274.33-.881.621-1.349.646-.694.038-.719.081-.139.232.392.102 1.292-.186 2-.64.793-.508 1.038-.827.637-.831-.358-.004-.875.263-1.149.593m-154.88.28c.264.264.48.834.48 1.267 0 .432.112.675.248.538.394-.394-.214-2.285-.736-2.285-.359 0-.357.115.008.48m235.923.553c-.438 1.14-.255 1.535.344.743.323-.427.593-.911.6-1.076.024-.559-.7-.304-.944.333m41.411 1.387c-.029.561-.267 1.233-.527 1.493-.261.261-.365.582-.233.715.405.404 1.167-1.412.986-2.349-.153-.786-.177-.771-.226.141m-318.452.404c-.001.342.262.972.585 1.4.764 1.01.772.572.015-.878-.328-.63-.598-.865-.6-.522m187.822.189c-.764.577-.763.587.051.587.455 0 1.051-.27 1.325-.6.676-.814-.295-.805-1.376.013m-98.035 1.139c-.434.303-1.059.64-1.389.748-.33.108-.094.132.525.053 1.268-.161 3.251-1.353 2.253-1.353-.33 0-.955.248-1.389.552M82 232.14c0 .078.432.954.96 1.947.529.994 1.048 2.145 1.154 2.56.158.615.202.583.24-.176.025-.511-.421-1.726-.992-2.7-.912-1.556-1.362-2.095-1.362-1.631m171.2.689c0 .235-.27.698-.6 1.028-.33.33-.6.795-.6 1.033 0 .238.36.017.8-.49.734-.846 1.08-2 .6-2-.11 0-.2.193-.2.429m-107.462 1.102c.364.403.669.898.677 1.1.021.519 2.772 3.658 2.777 3.169.002-.22-.492-.94-1.098-1.6-.607-.66-1.322-1.695-1.59-2.3-.268-.605-.699-1.1-.957-1.1-.291 0-.218.279.191.731m211.555 1.269c0 .77.082 1.085.183.7.1-.385.1-1.015 0-1.4-.101-.385-.183-.07-.183.7m-238.638-.2c-.126.33-.133.6-.014.6.119 0 .486-.27.816-.6.521-.52.522-.6.014-.6-.322 0-.689.27-.816.6m195.988.433c-.134.348-.243 1.012-.243 1.476 0 1.111 1.167-.273 1.187-1.409.016-.873-.618-.918-.944-.067m-200.054.713c-.434.3-1.239.673-1.789.828-1.372.386-3.771 1.56-3.933 1.926-.074.165-.524.321-1 .346-.683.037-.717.086-.163.231.387.101 1.339-.209 2.116-.689.777-.48 1.754-.783 2.173-.674.444.116 1.047-.116 1.446-.557.377-.417.906-.757 1.177-.757s1.098-.263 1.838-.584l1.346-.585-1.211-.015c-.666-.009-1.566.23-2 .53m135.851.685c-.501.678-.83 1.313-.731 1.411.099.099.664-.455 1.256-1.231.591-.776.92-1.411.731-1.411-.19 0-.755.554-1.256 1.231M41.212 236.4c0 .69.668 1.87.899 1.588.085-.103-.082-.638-.372-1.188-.291-.551-.527-.731-.527-.4m43.765 2.889c.343.489.623 1.479.623 2.2 0 1.311.537 1.774.915.789.253-.66-1.198-3.878-1.749-3.878-.226 0-.131.4.211.889m228.3.203c-.944 1.325-1.117 2.312-.477 2.708.233.144.4-.256.4-.957 0-.696.275-1.357.652-1.568.358-.201.573-.601.477-.889-.112-.336-.492-.081-1.052.706M42.509 240.8c0 .99.078 1.395.173.9a5.661 5.661 0 0 0 0-1.8c-.095-.495-.173-.09-.173.9m156.935-.971c-.168.439-.04.59.424.5.366-.071.741-.354.832-.629.245-.735-.972-.61-1.256.129m-94.23.545c-.637 1.191-.494 1.423.386.626.857-.776 1.042-1.4.414-1.4-.212 0-.572.348-.8.774m70.786.728c0 .22.27.624.6.898.335.278.6.321.6.098 0-.22-.27-.624-.6-.898-.335-.278-.6-.321-.6-.098m17.9.774c-.385.1-.7.336-.7.524s-.315.424-.7.524c-.556.146-.525.193.151.23.468.025 1.066-.214 1.33-.531.263-.317 1.05-.648 1.749-.736l1.27-.159-1.2-.018c-.66-.009-1.515.065-1.9.166m-41.762.855c.364.403.662.943.662 1.2 0 .258.27.469.6.469.33 0 .6.21.6.467 0 .256.108.359.239.227.289-.289-1.888-3.094-2.401-3.094-.199 0-.064.329.3.731m94.06.071c-.4.442-.608.922-.462 1.067.145.145.264.054.264-.202 0-.257.27-.467.6-.467.33 0 .6-.27.6-.6 0-.785-.133-.758-1.002.202m109.102-.114c-.568.203-.689 1.312-.143 1.312.337 0 .988-1.213.752-1.402-.06-.049-.334-.008-.609.09m-312.5.641c0 .322.27.689.6.816.33.126.6.133.6.014 0-.119-.27-.486-.6-.816-.52-.521-.6-.522-.6-.014m62.002.295c-.001.342.262.972.585 1.4.764 1.01.772.572.015-.878-.328-.63-.598-.865-.6-.522m84.65.185c-.191.497-.088.532.557.186.927-.496 1.015-.795.234-.795-.307 0-.663.274-.791.609m-13.185.058c-.551.551-.246 2.828.464 3.471.912.825 2.609.857 3.269.062.608-.733-.359-.881-1.076-.164-.314.314-.726.183-1.48-.472-1.128-.981-1.326-1.922-.564-2.684.287-.287.314-.48.067-.48-.228 0-.534.12-.68.267M186 245c-.278.335-.321.6-.098.6.22 0 .624-.27.898-.6.278-.335.321-.6.098-.6-.22 0-.624.27-.898.6m125.362-.294c-.241.162-.545.971-.676 1.798-.13.827-.518 1.785-.862 2.129-.343.343-.623.926-.621 1.296.004 1.092 1.558-1.541 1.847-3.129.14-.77.433-1.625.651-1.9.445-.56.316-.634-.339-.194m-224.081.876c.552.884.941.773.581-.165-.13-.339-.424-.617-.653-.617-.263 0-.237.287.072.782m67.819.283c.275.111.5.457.5.768 0 .312.211.567.469.567.257 0 .797.298 1.2.662.402.364.731.499.731.3 0-.428-2.613-2.576-3.079-2.53-.176.017-.096.122.179.233m27.3.335c-.408.491-.38.6.151.6.357 0 .649-.27.649-.6 0-.33-.068-.6-.151-.6-.083 0-.375.27-.649.6m-138.4.7c0 .359.192.771.427.916.686.424.753.045.14-.793-.474-.649-.567-.669-.567-.123m44.032.751c-.018.358.227.866.544 1.129.317.263.652.87.746 1.349l.169.871.055-.871c.029-.48-.187-1.113-.482-1.408-.294-.294-.64-.802-.768-1.128-.193-.491-.238-.481-.264.058m152.768.198c0 .531.109.559.6.151.33-.274.6-.566.6-.649 0-.083-.27-.151-.6-.151-.33 0-.6.292-.6.649m49.628 1.917c-.632.762-.443 1.138.332.659.296-.183.464-.553.374-.823-.116-.348-.32-.301-.706.164m62.432.5c-.641.695-.461 1.029.3.559.296-.183.471-.516.389-.739-.086-.236-.377-.16-.689.18m-307.654-.052c.011.689.742 1.571 1.048 1.265.164-.164-.006-.602-.378-.974s-.673-.503-.67-.291M163 252.191c.88.758 1.839 1.386 2.131 1.394.291.008-.295-.615-1.304-1.385-2.356-1.799-2.91-1.805-.827-.009m71.869.04c-.952.753-1.457 1.369-1.122 1.369.335 0 1.293-.629 2.131-1.398 1.944-1.786 1.26-1.766-1.009.029m54.412.187c-.309.495-.335.782-.072.782.229 0 .523-.278.653-.617.36-.938-.029-1.049-.581-.165m-242.476 2.391c.496.927.795 1.015.795.234 0-.307-.274-.663-.609-.791-.497-.191-.532-.088-.186.557m241.349-.503c-.245.162-.56.658-.698 1.103-.139.444-.793 1.4-1.454 2.124-.661.724-1.202 1.485-1.202 1.692 0 .206-.27.375-.6.375-.33 0-.6.211-.6.469 0 .257-.298.797-.662 1.2-.616.68-.616.731 0 .731.364 0 .662-.235.662-.522 0-.286.63-1.132 1.4-1.878.77-.746 1.4-1.583 1.4-1.859s.225-.645.5-.821c.458-.293 2.106-2.928 1.823-2.914-.068.003-.324.138-.569.3m-59.97 2.121c-.145.234-.168.522-.051.64.287.286 1.067-.219 1.067-.691 0-.511-.691-.477-1.016.051m122.616 1.124c0 .413-.27.975-.6 1.249-.33.274-.579.881-.554 1.349.043.775.064.782.244.079.108-.424.447-1.022.753-1.328.524-.524.792-2.1.357-2.1-.11 0-.2.338-.2.751m-303.2.296c0 .22.264.749.587 1.177.323.427.588.596.588.376 0-.22-.265-.749-.588-1.176-.323-.428-.587-.597-.587-.377m64.8-.109c0 .144.36.622.8 1.062.44.44.8.648.8.462s-.36-.664-.8-1.062c-.44-.398-.8-.606-.8-.462m110.584 1.089c-.424.686-.045.753.793.14.649-.474.669-.567.123-.567-.359 0-.771.192-.916.427m-44.584 1.312c1.098.578 1.421.543 1.016-.112-.145-.235-.658-.424-1.14-.421-.84.006-.835.027.124.533m41.083.035c-.316.316-1.364.645-2.329.73l-1.754.156 1.876.07c1.032.039 1.996-.123 2.141-.358.146-.235.651-.584 1.124-.775.642-.259.689-.353.188-.372-.37-.014-.93.233-1.246.549m84.928.013c-.268.322-.394.817-.28 1.1.132.33.217.271.237-.167.018-.374.347-.864.732-1.088.385-.224.497-.413.249-.42-.248-.007-.67.252-.938.575m-255.557.669c-.029.58.326 1.48.789 2l.844.944-.606-1.029c-.334-.566-.689-1.466-.789-2-.18-.955-.184-.954-.238.085m66.346.344c.235.44.63.8.876.8s.122-.36-.276-.8c-.398-.44-.792-.8-.876-.8-.084 0 .041.36.276.8m65.505-.117c.497.096 1.217.092 1.6-.008.382-.1-.025-.179-.905-.174-.88.004-1.193.086-.695.182m3 .793c.372.372.788.564.926.427.393-.394-.211-1.103-.94-1.103-.611 0-.61.053.014.676m30.562-.409c-.383.382-.329.933.09.933.197 0 .461-.27.588-.6.234-.61-.192-.819-.678-.333m134.633.421c-.275.098-.5.472-.5.831 0 .594.061.592.676-.024.723-.723.641-1.099-.176-.807m-253.268.849c-.018.295.328.994.768 1.554.44.559.8.825.8.592 0-.234-.241-.667-.536-.962-.294-.294-.64-.802-.768-1.128-.172-.438-.241-.453-.264-.056m95.314.265c1.472.768 2.092.767 1.454-.002-.274-.33-.971-.599-1.549-.598l-1.051.003 1.146.597m15.23-.015c-.766.58-.765.588.024.588.44 0 1.149-.265 1.576-.588.767-.579.766-.587-.023-.587-.44 0-1.149.264-1.577.587m95.667 1.246c-.376.978-.294 1.108.357.567.665-.552.796-1.2.243-1.2-.197 0-.467.285-.6.633m-251.443.889c0 .429.27 1.004.6 1.278.493.409.6.377.6-.18 0-.372-.27-.947-.6-1.277-.533-.533-.6-.514-.6.179m297.228-.156c-.298.359-.423.772-.278.917.373.374 1.172-.516.98-1.092-.11-.331-.327-.277-.702.175M118.8 266.319c0 .175.532.76 1.183 1.3.651.539 1.198 1.161 1.216 1.381.057.685 2.369 3.165 2.67 2.864.157-.157-.289-.81-.992-1.452-.702-.642-1.277-1.339-1.277-1.548 0-.21-.49-.94-1.089-1.623-1.065-1.213-1.711-1.561-1.711-.922m159.5 1.06c-1.516 1.899-1.378 2.129.3.5.77-.748 1.4-1.477 1.4-1.619 0-.61-.675-.166-1.7 1.119m-226.572.79c.04.643.342 1.257.672 1.365.472.154.502.075.143-.369-.251-.311-.554-.925-.672-1.365-.135-.503-.188-.365-.143.369m294.427.131c-.143.605-.895 2.18-1.672 3.5-1.76 2.993-1.764 3-1.573 3 .447 0 4.29-6.415 4.29-7.162 0-.9-.794-.397-1.045.662M52.8 270.414c0 .259.54 1.153 1.2 1.986.66.833 1.2 1.714 1.2 1.958 0 .243.185.442.41.442.231 0 .141-.482-.205-1.1-1.5-2.681-2.605-4.075-2.605-3.286m47.762.586c1.183 1.096 1.438 1.202 1.438.6 0-.22-.27-.4-.6-.4-.33 0-.6-.27-.6-.6 0-.33-.296-.6-.658-.6-.499 0-.398.242.42 1M298 270.393c0 .216-.63 1.041-1.4 1.834-2.155 2.219-1.658 2.197.6-.027 2.235-2.202 2.234-2.2 1.4-2.2-.33 0-.6.177-.6.393M102.896 273.7c1.026 1.451 2.12 2.683 1.859 2.093-.523-1.181-1.822-3.006-2.259-3.176-.277-.107-.097.38.4 1.083m1.904 2.866c0 .371 3.199 3.568 3.385 3.382.11-.11-.503-.953-1.361-1.874-1.415-1.516-2.024-1.971-2.024-1.508m187.626 1.156l-.975 1.278 1.275-1.175c1.325-1.222 1.477-1.44.974-1.403-.165.012-.738.597-1.274 1.3m-161.65.968c.317.125 1.077.776 1.689 1.446.613.67 1.253 1.073 1.424.894.171-.178-.031-.528-.45-.777a7.178 7.178 0 0 1-1.389-1.153c-.345-.385-.903-.686-1.239-.668-.51.026-.516.069-.035.258m134.986 1.51c-.593.55-.918.997-.72.993.382-.007 2.395-1.993 2.021-1.993-.122 0-.707.45-1.301 1m23.446 1.192c-.967.985-1.679 1.866-1.583 1.956.096.091 1.027-.715 2.069-1.791s1.754-1.957 1.583-1.957c-.171 0-1.102.806-2.069 1.792m-179.756.532c.677.618 1.333 1.383 1.458 1.7.186.473.232.464.258-.049.033-.652-1.94-2.775-2.579-2.775-.202 0 .186.506.863 1.124M138 284.17c0 .346.261.63.58.63.318 0 1.06.63 1.647 1.4.587.77 1.24 1.4 1.451 1.4.478 0-1.086-1.914-2.567-3.141-.889-.736-1.111-.794-1.111-.289m120.577 1.623c-1.087.974-1.797 1.777-1.577 1.784.48.016 3.957-3.153 3.72-3.39-.091-.091-1.055.631-2.143 1.606m77.718.554c-.949 1.607-.875 1.99.137.703.458-.582.77-1.243.695-1.469-.075-.226-.45.119-.832.766M61.6 285.902c0 .22.27.624.6.898.335.278.6.321.6.098 0-.22-.27-.624-.6-.898-.335-.278-.6-.321-.6-.098m81.2 2.298c.274.33.678.6.898.6.223 0 .18-.265-.098-.6-.274-.33-.678-.6-.898-.6-.223 0-.18.265.098.6m139.295.466c-.277.112-.692.593-.922 1.069-.357.741-.34.779.123.265.297-.33.793-.825 1.102-1.1.589-.524.531-.569-.303-.234m-218.063.46c-.047.78.73 2.074 1.244 2.074.269 0 .204-.28-.162-.7-.335-.385-.709-.97-.83-1.3-.152-.414-.231-.437-.252-.074m189.391.307c-.649.474-.669.567-.123.567.359 0 .771-.192.916-.427.424-.686.045-.753-.793-.14M146.8 290.6c0 .33.292.6.649.6.531 0 .559-.109.151-.6-.274-.33-.566-.6-.649-.6-.083 0-.151.27-.151.6m2.8 1.4c.507.44 1.21.789 1.561.775.437-.018.367-.135-.22-.372-.473-.191-.978-.54-1.124-.775-.145-.235-.461-.428-.702-.428-.24 0-.022.36.485.8m180.51 3.29c-.844 1.065-1.342 2.31-.924 2.31.228 0 .414-.27.414-.6 0-.33.161-.6.357-.6.381 0 .966-1.21.709-1.467-.083-.084-.334.077-.556.357m-205.456.665c.398.465.895.845 1.103.845.209 0 .717.305 1.129.678.554.501.69.527.525.1-.123-.318-.806-.934-1.517-1.368-1.897-1.159-2.038-1.188-1.24-.255m115.43-.14c-.424.481-.415.585.051.585.312 0 .791-.27 1.065-.6.684-.824-.388-.809-1.116.015m32.916.307c-.66.483-1.344 1.103-1.52 1.378-.176.275-.581.5-.9.5-.319 0-.58.27-.58.6 0 .33-.27.6-.6.6-.33 0-.6.308-.6.685 0 .479.574.119 1.914-1.2 1.052-1.037 2.092-1.885 2.311-1.885.218 0 .705-.36 1.082-.8.889-1.038.406-.985-1.107.122m-109.325 1.903c.096.289.411.604.7.7.3.1.45-.05.35-.35-.096-.289-.411-.604-.7-.7-.3-.1-.45.05-.35.35m70.725.175c-.408.491-.38.6.151.6.357 0 .649-.27.649-.6 0-.33-.068-.6-.151-.6-.083 0-.375.27-.649.6m-106.4-.021c0 .399 1.851 2.099 2.578 2.368.758.28.759.267.038-.53-.407-.449-.982-.817-1.278-.817-.296 0-.538-.27-.538-.6 0-.33-.18-.6-.4-.6-.22 0-.4.081-.4.179m-57.052.921c.379.385.936 1.06 1.238 1.499.302.44.672.677.822.527.15-.151-.291-.825-.981-1.5-1.306-1.276-2.287-1.755-1.079-.526m160.752-.024c.385.1 1.015.1 1.4 0 .385-.101.07-.183-.7-.183s-1.085.082-.7.183m-63.3.533c0 .229.278.523.617.653.938.36 1.049-.029.165-.581-.495-.309-.782-.335-.782-.072m61.023.224c-.649.474-.669.567-.123.567.359 0 .771-.192.916-.427.424-.686.045-.753-.793-.14m-58.852.921c.121.194 1.07.481 2.11.637 1.04.156 2.252.537 2.694.846.442.31 1.528.542 2.414.517.886-.026 1.251-.125.811-.221a10.08 10.08 0 0 1-1.6-.528c-.784-.347-5.762-1.605-6.349-1.605-.164 0-.2.159-.08.354m55.253.096c-.867.203-1.677.478-1.8.611-.364.393 3.74-.292 4.156-.694.462-.446-.197-.423-2.356.083M132.8 302.2c.274.33.678.6.898.6.223 0 .18-.265-.098-.6-.274-.33-.678-.6-.898-.6-.223 0-.18.265.098.6m88.98-.234c-.209.202-.83.447-1.38.546-.745.133-.626.193.467.234 1.645.061 2.733-.253 2.733-.789 0-.467-1.332-.461-1.82.009m-39.38 1.243c0 .229.278.523.617.653.938.36 1.049-.029.165-.581-.495-.309-.782-.335-.782-.072m32.762.237c-.464.559-.435.627.218.5.414-.08.829-.371.92-.646.238-.714-.504-.618-1.138.146m-23.162.907c0 1.039 12.883 1.274 14.224.26.735-.557.709-.588-.5-.6-.702-.007-1.388.167-1.524.387-.141.229-2.196.4-4.8.4-2.604 0-4.659-.171-4.8-.4-.305-.494-2.6-.535-2.6-.047m-116.4 1.101c0 .378 4.831 5.049 5.023 4.856.091-.091-.822-1.101-2.029-2.245-1.207-1.144-2.194-2.256-2.194-2.472a.398.398 0 0 0-.4-.393c-.22 0-.4.114-.4.254m245.29 1.658c-.941.99-1.634 1.877-1.54 1.971.213.213 3.45-3.13 3.45-3.564 0-.428.037-.459-1.91 1.593m-69.906 2.515c-.424.686-.045.753.793.14.649-.474.669-.567.123-.567-.359 0-.771.192-.916.427m-101.795 1.067c.543.102 1.349.437 1.789.745.44.309.985.56 1.211.558.226-.001-.129-.36-.789-.797-.66-.437-1.65-.771-2.2-.743l-1 .052.989.185m98.711-.018c-.385.1-.7.439-.7.753s-.27.571-.6.571c-.337 0-.6.357-.6.814 0 .693.182.607 1.22-.575.671-.765 1.706-1.464 2.3-1.554 1.025-.157 1.029-.166.08-.179-.55-.007-1.315.069-1.7.17m68.7.924c-.353.683-.444 1.2-.21 1.2.225 0 .41-.211.41-.469 0-.257.298-.797.662-1.2.38-.419.469-.731.21-.731-.248 0-.731.54-1.072 1.2m-163.428.966c.625.753 2.169.86 1.93.134-.09-.275-.68-.56-1.31-.634-1.007-.118-1.082-.057-.62.5m2.505 1.073c.106.322.854.615 1.754.688 1.898.153 1.458-.569-.597-.98-1.05-.21-1.301-.147-1.157.292m158.117 1.374c-.877.967-1.742 1.765-1.923 1.773-.637.027-1.592 1.214-.977 1.214.571 0 4.937-4.302 4.654-4.585-.088-.088-.877.631-1.754 1.598m-228.013 1.306c.87.925 1.731 1.681 1.914 1.681.352 0-1.408-1.8-2.719-2.781-.427-.32-.064.175.805 1.1m77.319-.437c.495.096.9.322.9.502 0 .181.493.453 1.096.604.603.152 1.23.486 1.394.744.219.344.299.333.304-.045.003-.281-.309-.631-.694-.777a4.204 4.204 0 0 1-1.229-.788c-.29-.287-1.01-.497-1.6-.468-.942.048-.963.076-.171.228m82.913.431c.038.871 1.187 1.845 1.187 1.006 0-.458-.27-.937-.6-1.064-.33-.126-.594-.101-.587.058m-10.357 1.253c.519.421 1.034.676 1.143.567.235-.233-1.184-1.333-1.72-1.333-.202 0 .057.345.577.766m-65.056.706c.44.121.949.425 1.13.674.219.3.276.25.169-.146-.089-.33-.598-.633-1.13-.674-.764-.058-.8-.027-.169.146m66.2.666c0 .175.27.589.6.919.33.33.6 1.288.6 2.129 0 .993.211 1.609.603 1.76.979.376.297-2.943-.85-4.137-.524-.545-.953-.847-.953-.671m10.4.226c0 .186.27.562.6.836.488.405.6.385.6-.108 0-.334-.27-.71-.6-.837-.33-.126-.6-.078-.6.109m-73.3.325c.715.089 1.885.089 2.6 0 .715-.088.13-.161-1.3-.161-1.43 0-2.015.073-1.3.161m48 0c.715.089 1.885.089 2.6 0 .715-.088.13-.161-1.3-.161-1.43 0-2.015.073-1.3.161m-131.1 1.524c0 .323.135.591.3.596.165.005 1 .64 1.856 1.411.856.771 1.664 1.293 1.797 1.161.132-.133-.107-.435-.532-.673-.424-.238-1.368-1.028-2.096-1.757-.829-.828-1.325-1.105-1.325-.738m99.6.387c.543.655 1.6.815 1.6.243 0-.368-.947-.843-1.682-.843-.252 0-.22.237.082.6m16.9-.335c-.611.246-.664.935-.071.935.235 0 .698-.27 1.028-.6.622-.622.157-.785-.957-.335m97.8 2.038c-.605.375-1.1.826-1.1 1.002 0 .175.54-.08 1.2-.568 1.055-.78 1.427-1.161 1.1-1.126-.055.005-.595.317-1.2.692m-55.479 2.308c-.012.666.226 1.566.528 2 .302.434.676 1.372.831 2.084.155.713.467 1.41.694 1.55.443.274.085-1.918-.495-3.032-.176-.337-.594-1.333-.929-2.213-.597-1.569-.609-1.577-.629-.389m-9.94.171c.552.884.941.773.581-.165-.13-.339-.424-.617-.653-.617-.263 0-.237.287.072.782m-139.814 2.649c.125.325.58.78 1.01 1.01.697.373.737.333.364-.364-.513-.96-1.71-1.522-1.374-.646m140.533.728c0 .366.27.77.6.896.33.127.625.706.654 1.288.049.944.073.961.228.156.102-.527-.17-1.339-.654-1.954-.618-.786-.828-.884-.828-.386m54.718 1.941c-.969.898-3.077 2.3-3.459 2.3-.205 0-.477.27-.604.6-.126.33-.078.6.109.6.186 0 .562-.27.836-.6.274-.33.727-.6 1.006-.6.28 0 .612-.27.739-.6.126-.33.416-.6.642-.6.227 0 .773-.36 1.213-.8.859-.859.417-1.134-.482-.3M252 332.1c0 .359.192.771.427.916.686.424.753.045.14-.793-.474-.649-.567-.669-.567-.123m-147.125.325c.096.289.411.604.7.7.3.1.45-.05.35-.35-.096-.289-.411-.604-.7-.7-.3-.1-.45.05-.35.35m137.138.304c-.007.29.257.798.587 1.128.771.771.78.134.013-.881-.369-.487-.592-.579-.6-.247m-135.613.828c0 .197.27.461.6.588.365.14.6 0 .6-.358a.595.595 0 0 0-.6-.587c-.33 0-.6.161-.6.357m6.4 4.243c.274.33.678.6.898.6.223 0 .18-.265-.098-.6-.274-.33-.678-.6-.898-.6-.223 0-.18.265.098.6m8.6 4.491c.44.109.944.448 1.12.754.176.305.489.555.696.555.207 0 .068-.36-.309-.8-.377-.44-1.05-.779-1.496-.754-.802.046-.802.049-.011.245m124.2.811c0 .22.27.624.6.898.335.278.6.321.6.098 0-.22-.27-.624-.6-.898-.335-.278-.6-.321-.6-.098M126.255 345.4c.127.33.494.6.816.6.508 0 .507-.08-.014-.6-.33-.33-.697-.6-.816-.6s-.112.27.014.6m3.921 2.413c.428.323 1.047.587 1.377.587.453 0 .41-.144-.177-.587-.427-.323-1.046-.588-1.376-.588-.453 0-.41.144.176.588m137.024.02c-.909.504-.925.556-.176.561.452.003 1.172-.258 1.6-.581 1.022-.774-.02-.759-1.424.02m-2.956 1.196c-.168.439-.04.59.424.5.366-.071.741-.354.832-.629.245-.735-.972-.61-1.256.129m-5.812.022c-.064.903.977 1.234 2.968.946l2-.29-2.267-.054c-1.395-.032-2.344-.245-2.468-.553-.127-.314-.214-.332-.233-.049m-9.767 3.47c.186 1.146.034 1.493-1.055 2.409-1.047.881-1.136 1.07-.503 1.07 1.598 0 3.014-3.783 1.717-4.585-.222-.137-.287.317-.159 1.106m-91.16 4.962c.497.096 1.217.092 1.6-.008.382-.1-.025-.179-.905-.174-.88.004-1.193.086-.695.182m82.4 0c.497.096 1.217.092 1.6-.008.382-.1-.025-.179-.905-.174-.88.004-1.193.086-.695.182m-79.105.528c0 .347 1.553.97 1.801.721.077-.077-.296-.347-.83-.599s-.971-.307-.971-.122m76 .25c-.551.291-.731.527-.4.527.69 0 1.87-.668 1.588-.899-.103-.085-.638.082-1.188.372m-69.6.896c0 .197.285.467.633.6.978.376 1.108.294.567-.357-.552-.665-1.2-.796-1.2-.243m63.024.256c-.428.323-.597.587-.377.587.22 0 .749-.264 1.177-.587.427-.323.596-.588.376-.588-.22 0-.749.265-1.176.588m-57.824.899c0 .522 1.891 1.13 2.285.736.137-.136-.106-.248-.538-.248-.433 0-1.003-.216-1.267-.48-.365-.365-.48-.367-.48-.008m52.8.349c-.551.291-.731.527-.4.527.69 0 1.87-.668 1.588-.899-.103-.085-.638.082-1.188.372"/><path d="M174.654 40.596c-.63.332-1.89.605-2.8.606-.91.002-2.124.248-2.699.548-.575.3-2.406.673-4.069.829-2.041.191-3.095.468-3.243.852-.155.404-.91.569-2.602.569-1.586 0-2.585.201-2.984.6-.33.33-1.08.6-1.667.6-3.702 0-5.625 4.425-3.39 7.8.437.66.796 1.763.797 2.451.002.688.273 1.475.603 1.749.33.274.6.994.6 1.6 0 .606.27 1.326.6 1.6.33.274.6.994.6 1.6 0 .606.27 1.326.6 1.6.33.274.6 1.093.6 1.82 0 .728.248 1.571.551 1.874.303.303.686 1.171.851 1.929.165.757.547 1.732.849 2.166.302.434.549 1.159.549 1.611 0 .452.243 1.177.54 1.611.297.434.661 1.284.808 1.889.147.605.444 1.1.66 1.1.215 0 .392.698.392 1.551 0 .891.255 1.763.6 2.049.33.274.6.695.6.936 0 1.547 3.836 2.816 4.333 1.434.074-.203.889-.37 1.811-.37.923 0 2.033-.243 2.467-.541.434-.298 2.399-.661 4.367-.808 2.269-.17 3.816-.484 4.231-.859.501-.454 1.781-.592 5.474-.592 3.796 0 4.925-.127 5.317-.6.729-.878 18.214-.866 19.376.013.574.433 1.926.587 5.169.587 3.287 0 4.554.147 5.037.583.392.355 1.971.692 4.031.859 1.863.151 3.742.519 4.176.816.434.298 1.745.542 2.913.542 1.518 0 2.189.171 2.353.6.127.33.551.6.942.6.391 0 1.227.269 1.857.598.63.328 1.529.598 1.997.6.468.001 1.075.272 1.349.602.274.33 1.084.6 1.8.6s1.526.27 1.8.6c.274.33.731.6 1.017.6.285 0 1.028.248 1.651.551.622.303 2.032.96 3.132 1.461 1.1.501 2.478 1.153 3.062 1.449.584.297 1.327.539 1.651.539.324 0 .813.27 1.087.6.274.33.759.6 1.078.6.318 0 .849.27 1.179.6.33.33.928.6 1.329.6.401 0 .832.27.959.6.126.33.556.6.954.6.398 0 1.031.36 1.408.8.377.44 1.028.8 1.446.8.419 0 .865.27.992.6.126.33.666.6 1.2.6.533 0 1.073.27 1.2.6.126.33.506.6.842.6.337 0 .613.186.613.413 0 .227.336.542.747.7.411.158 1.626 1.059 2.7 2.004 3.918 3.443 4.77 4.096 5.653 4.331.495.131.9.489.9.795 0 .307.164.557.365.557.296 0 4.912 4.167 7.16 6.464 2.351 2.401 6.475 6.843 6.475 6.974 0 .337 1.617 1.762 2 1.762.22 0 .4.323.4.719 0 .81.579 1.619 3.289 4.602 1.039 1.144 1.894 2.31 1.9 2.592.006.281.281.616.611.742.33.127.6.552.6.945 0 .393.27.818.6.945.33.126.6.686.6 1.242 0 .557.189 1.013.421 1.013.231 0 .609.54.839 1.2.23.66.563 1.2.74 1.2.177 0 .51.54.74 1.2.23.66.608 1.2.839 1.2.232 0 .421.456.421 1.013 0 .556.27 1.116.6 1.242.33.127.6.639.6 1.139 0 .499.27 1.132.6 1.406.33.274.6.823.6 1.22 0 .398.27.993.6 1.323.33.33.6.801.6 1.047 0 .246.63 1.793 1.4 3.437.77 1.645 1.4 3.262 1.4 3.594 0 .332.27.708.6.834.408.157.6.796.6 2s.192 1.844.6 2c.33.127.6.627.6 1.111 0 .485.264 1.23.587 1.658.323.427.593 1.258.6 1.847.007.59.283 1.342.613 1.672.349.349.6 1.326.6 2.339 0 .957.244 2.095.541 2.529.298.434.649 2.366.781 4.294.148 2.169.476 3.842.859 4.389.487.695.62 2.081.621 6.495.002 4.195.154 5.9.6 6.757.84 1.609.828 10.516-.015 11.63-.456.603-.587 2.125-.587 6.811 0 4.8-.127 6.216-.619 6.919-.383.547-.711 2.22-.859 4.389-.132 1.928-.483 3.86-.781 4.294-.297.434-.541 1.627-.541 2.651 0 1.167-.224 2.048-.6 2.36-.33.274-.606.971-.613 1.549-.007.578-.277 1.4-.6 1.827-.323.428-.587 1.173-.587 1.658 0 .484-.27.984-.6 1.111-.408.156-.6.796-.6 2 0 1.052-.204 1.848-.503 1.962-.277.107-.846 1.161-1.265 2.343-.42 1.183-1.093 2.777-1.497 3.544-.404.767-.735 1.712-.735 2.1 0 .388-.177.706-.392.706-.216 0-.513.495-.66 1.1-.147.605-.511 1.455-.808 1.889-.297.434-.54 1.09-.54 1.457 0 .368-.27.772-.6.899-.33.126-.6.686-.6 1.242 0 .557-.189 1.013-.421 1.013-.231 0-.609.54-.839 1.2-.23.66-.563 1.2-.74 1.2-.177 0-.517.495-.755 1.1-.238.605-.616 1.415-.839 1.8-1.03 1.777-1.228 2.139-1.478 2.7-.147.33-.506.744-.798.92-.291.176-.53.537-.53.802s-.894 1.381-1.987 2.48-1.993 2.146-2 2.327c-.007.18-.283.598-.613.928-.33.33-.6.947-.6 1.372 0 .424-.27.771-.6.771-.33 0-.6.27-.6.6 0 .33-.27.6-.6.6-.33 0-.6.17-.6.379 0 .421-3.855 4.62-7.134 7.771-5.302 5.093-6.142 5.85-6.493 5.85-.205 0-.373.27-.373.6 0 .33-.233.6-.519.6-.568 0-2.005 1.001-3.015 2.1-.354.385-.779.7-.943.7-.165 0-1.16.808-2.211 1.796-1.052.987-2.227 1.9-2.612 2.027-.385.127-.7.399-.7.604 0 .205-.276.373-.613.373-.336 0-.716.27-.842.6-.127.33-.544.6-.927.6-.382 0-1.111.36-1.618.8-.507.44-1.255.8-1.661.8-.407 0-.739.27-.739.6 0 .33-.347.6-.771.6-.425 0-1.011.24-1.304.533-.293.292-1.026.656-1.629.807-.603.151-1.096.452-1.096.668 0 .215-.338.392-.751.392s-.975.27-1.249.6c-.274.33-.791.601-1.149.603-.358.001-1.191.36-1.851.797-.66.437-1.586.796-2.059.797-2.052.007-4.459 4.799-2.741 5.458.344.132.6.73.6 1.4 0 .671.256 1.268.6 1.4.389.15.6.77.6 1.768 0 .845.226 1.681.502 1.857.276.176.855 1.4 1.288 2.72.432 1.32 1.015 2.85 1.296 3.4.28.55.51 1.316.512 1.701.001.386.362 1.374.802 2.195.44.82.8 1.878.8 2.349 0 .471.27 1.081.6 1.355.33.274.6.994.6 1.6 0 .606.27 1.326.6 1.6.33.274.6.907.6 1.406 0 .5.27 1.012.6 1.139.397.152.6.779.6 1.855s.203 1.703.6 1.855c.33.127.602.616.605 1.088.016 2.397.314 2.657 3.054 2.657 1.912 0 2.625-.153 2.796-.6.127-.33.627-.6 1.111-.6.485 0 1.23-.264 1.658-.587.427-.323 1.181-.593 1.676-.6.495-.007.9-.183.9-.391 0-.361 1.156-1.104 3.1-1.991.495-.226.9-.573.9-.771 0-.198.54-.468 1.2-.6.704-.141 1.2-.492 1.2-.85 0-.406.387-.61 1.157-.61.66 0 1.256-.258 1.388-.6.126-.33.677-.6 1.223-.6s1.136-.225 1.312-.5c.176-.276 1.189-.951 2.252-1.5 3.595-1.861 3.919-2.067 4.136-2.634.12-.311.564-.566.987-.566.424 0 .874-.27 1-.6.127-.33.487-.6.8-.6.314 0 .674-.27.8-.6.127-.33.408-.6.625-.6.216 0 .806-.315 1.311-.7a47.48 47.48 0 0 1 1.802-1.3c1.385-.939 4.007-3.556 4.007-4 0-.22.456-.4 1.013-.4.556 0 1.116-.27 1.242-.6.127-.33.487-.6.8-.6.314 0 .674-.27.8-.6.127-.33.481-.6.788-.6.306 0 .557-.27.557-.6 0-.33.193-.6.429-.6.235 0 .665-.225.953-.5.289-.275 1.91-1.76 3.603-3.3 4.99-4.541 7.427-7.109 7.672-8.085.126-.503.48-.915.786-.915.307 0 .557-.27.557-.6 0-.33.165-.6.367-.6.535 0 3.63-2.854 3.65-3.366.009-.239.549-.876 1.2-1.415.651-.54 1.183-1.311 1.183-1.713 0-.402.27-.835.6-.961.33-.127.6-.462.6-.745s.27-.618.6-.745c.33-.126.6-.506.6-.842 0-.337.27-.613.6-.613.33 0 .6-.27.6-.6 0-.33.15-.6.333-.6.183 0 .915-.9 1.628-2 .713-1.1 1.463-2 1.668-2 .204 0 .371-.251.371-.557 0-.307.27-.661.6-.788.33-.126.6-.601.6-1.055 0-.454.27-.929.6-1.055.33-.127.6-.472.6-.768 0-.295.227-.681.504-.857.277-.176 1.019-1.355 1.648-2.62.629-1.265 1.302-2.3 1.496-2.3.193 0 .352-.248.352-.551 0-.303.27-.775.6-1.049.33-.274.6-.842.6-1.262 0-.419.27-.867.6-.993.335-.129.6-.723.6-1.345s.265-1.216.6-1.345c.33-.126.6-.646.6-1.154 0-.508.36-1.231.8-1.608.44-.377.8-.957.8-1.289 0-.332.139-.604.308-.604.275 0 .819-.98 2.741-4.932.303-.623.551-1.366.551-1.651 0-.286.27-.743.6-1.017.33-.274.6-.997.6-1.606 0-.616.266-1.211.6-1.339.33-.126.6-.686.6-1.244 0-.558.36-1.686.8-2.507.44-.82.8-1.971.8-2.555 0-.585.27-1.167.6-1.294.398-.153.6-.781.6-1.871 0-.925.262-1.903.6-2.241.33-.33.606-1.082.613-1.672.007-.589.277-1.42.6-1.847.323-.428.587-1.443.587-2.258 0-.947.216-1.563.6-1.711.44-.168.6-.862.6-2.593 0-1.526.196-2.527.554-2.824.328-.272.671-1.718.84-3.549.157-1.699.46-3.302.672-3.561.212-.26.478-1.52.591-2.8.113-1.281.416-2.76.674-3.289.669-1.369.669-45.509 0-46.878-.258-.529-.561-2.008-.674-3.289-.113-1.28-.379-2.54-.591-2.8-.212-.259-.517-1.881-.676-3.604-.192-2.073-.476-3.203-.84-3.343-.388-.148-.55-.969-.55-2.78 0-1.916-.153-2.629-.6-2.8-.388-.149-.6-.769-.6-1.759 0-.841-.27-1.799-.6-2.129-.33-.33-.6-1.14-.6-1.8 0-.66-.27-1.47-.6-1.8-.33-.33-.6-1.23-.6-2s-.27-1.67-.6-2c-.33-.33-.6-1.02-.6-1.534s-.36-1.607-.8-2.427c-.44-.821-.8-1.949-.8-2.507s-.27-1.118-.6-1.244c-.334-.128-.6-.723-.6-1.339 0-.609-.27-1.332-.6-1.606-.33-.274-.6-.814-.6-1.2s-.247-.907-.549-1.157c-.301-.251-.649-1.077-.773-1.837-.123-.76-.419-1.612-.658-1.894-1.61-1.897-2.02-2.492-2.02-2.93 0-.273-.27-.6-.6-.727-.33-.126-.6-.691-.6-1.255s-.27-1.129-.6-1.255c-.342-.132-.6-.728-.6-1.388 0-.762-.205-1.157-.6-1.157-.358 0-.6-.368-.6-.911 0-.501-.54-1.502-1.2-2.225-.66-.722-1.2-1.668-1.2-2.102 0-.433-.315-.917-.7-1.075-.385-.158-.75-.733-.811-1.277-.062-.545-.377-1.139-.7-1.32-.324-.181-.589-.591-.589-.91 0-.319-.189-.58-.421-.58-.231 0-.609-.54-.839-1.2-.23-.66-.581-1.2-.779-1.2-.199 0-.361-.27-.361-.6 0-.33-.27-.6-.6-.6-.33 0-.6-.164-.6-.364 0-.553-2.096-3.636-2.471-3.636-.181 0-.329-.27-.329-.6 0-.33-.27-.6-.6-.6-.33 0-.6-.27-.6-.6 0-.33-.27-.6-.6-.6-.33 0-.6-.338-.6-.751s-.27-.975-.6-1.249c-.33-.274-.6-.709-.6-.968 0-.258-.532-.911-1.183-1.451-.651-.539-1.191-1.116-1.2-1.281-.026-.462-3.165-3.5-3.617-3.5-.22 0-.4-.18-.4-.4 0-.362-.29-.732-2.219-2.834-.319-.348-.581-.843-.581-1.1 0-.256-.27-.466-.6-.466-.33 0-.6-.27-.6-.6 0-.33-.27-.6-.6-.6-.33 0-.6-.27-.6-.6 0-.33-.202-.6-.45-.6-.247 0-1.282-.855-2.3-1.9-1.017-1.045-2.749-2.62-3.849-3.5-1.099-.88-2.444-2.095-2.989-2.7-.544-.605-1.201-1.1-1.458-1.1-.258 0-.572-.27-.699-.6-.126-.33-.686-.6-1.242-.6-.634 0-1.013-.225-1.013-.6 0-.33-.27-.6-.6-.6-.33 0-.6-.27-.6-.6 0-.33-.27-.6-.6-.6-.33 0-.6-.27-.6-.6 0-.33-.261-.6-.58-.6-.319 0-.724-.225-.9-.5-.406-.635-2.767-2.3-3.261-2.3-.205 0-.477-.27-.604-.6-.126-.33-.506-.6-.842-.6-.337 0-.613-.177-.613-.392 0-.216-.45-.506-1-.644s-1-.421-1-.628c0-.208-.54-.566-1.2-.796-.66-.23-1.2-.539-1.2-.687 0-.149-.855-.716-1.9-1.261-1.045-.546-2.044-1.217-2.22-1.492-.176-.275-.766-.5-1.312-.5s-1.097-.27-1.223-.6c-.132-.342-.728-.6-1.388-.6-.762 0-1.157-.205-1.157-.6 0-.4-.4-.6-1.2-.6-.8 0-1.2-.2-1.2-.6 0-.33-.182-.6-.404-.6-.222 0-1.301-.63-2.396-1.4-1.095-.77-2.354-1.4-2.796-1.4-.442 0-.804-.166-.804-.368 0-.203-.575-.495-1.277-.649-.703-.154-1.526-.529-1.829-.832-.303-.303-.966-.551-1.474-.551-.507 0-1.146-.27-1.42-.6-.274-.33-.994-.6-1.6-.6-.606 0-1.31-.251-1.565-.558-.255-.307-1.123-.682-1.929-.833-.806-.151-1.829-.53-2.275-.842-.445-.312-1.354-.573-2.02-.58-.666-.007-1.56-.277-1.987-.6-.428-.323-1.238-.593-1.8-.6-.563-.007-1.373-.277-1.8-.6-.428-.323-1.295-.587-1.929-.587-.634 0-1.422-.27-1.752-.6-.407-.407-1.414-.6-3.129-.6-1.81 0-2.59-.161-2.745-.565-.142-.371-1.159-.658-2.943-.833-1.499-.146-3.293-.522-3.986-.834-.694-.313-2.053-.568-3.02-.568-.968 0-1.985-.225-2.26-.5-.821-.822-48.256-.921-49.806-.104M134.657 52.2c-.33.33-.933.6-1.339.6-.407 0-1.095.243-1.529.54-.434.297-1.284.661-1.889.808-.605.147-1.1.444-1.1.66 0 .215-.242.392-.539.392-.296 0-.954.36-1.461.8-.507.44-1.075.8-1.261.8-.187 0-.339.27-.339.6 0 .4-.4.6-1.2.6-.8 0-1.2.2-1.2.6 0 .401-.401.6-1.213.6-.708 0-1.308.249-1.442.6-.127.33-.667.6-1.2.6-.534 0-1.069.259-1.191.576-.121.316-.746.69-1.387.831-.642.141-1.167.422-1.167.625a.367.367 0 0 1-.364.368c-.553 0-3.636 2.096-3.636 2.471 0 .181-.32.329-.711.329-.391 0-1.282.522-1.981 1.16-.699.639-1.416 1.224-1.593 1.3-1.258.546-4.515 3.022-4.515 3.434 0 .278-.27.506-.6.506-.33 0-.6.27-.6.6 0 .33-.276.6-.613.6-.336 0-.716.27-.842.6-.127.33-.531.6-.899.6-.367 0-1.259.54-1.982 1.2-.722.66-1.392 1.2-1.489 1.2-.096 0-.5.315-.897.7-.398.385-2.31 2.14-4.251 3.9C85.64 85.561 82 89.206 82 89.637c0 .189-1.44 1.781-3.2 3.539-1.76 1.757-3.2 3.363-3.2 3.567 0 .204-.27.475-.6.602-.33.126-.6.484-.6.793 0 .31-.27.788-.6 1.062-.33.274-.6.836-.6 1.249 0 .413-.18.751-.4.751-.604 0-3.6 3.214-3.6 3.861 0 .31-.27.668-.6.794-.33.127-.6.571-.6.988 0 .416-.27.757-.6.757-.33 0-.6.251-.6.557 0 .307-.27.661-.6.788-.33.126-.6.601-.6 1.055 0 .454-.27.929-.6 1.055-.33.127-.6.441-.6.699 0 .257-.36.776-.8 1.153-.44.377-.8 1.028-.8 1.446 0 .419-.27.865-.6.992-.33.126-.6.601-.6 1.055 0 .454-.27.929-.6 1.055-.33.127-.6.459-.6.739 0 .279-.27.732-.6 1.006-.33.274-.6.842-.6 1.262 0 .419-.27.867-.6.993-.33.127-.6.661-.6 1.188 0 .526-.36 1.317-.8 1.757-.44.44-.8 1.16-.8 1.6 0 .44-.177.8-.392.8-.216 0-.502.437-.636.971-.135.534-.498 1.068-.808 1.188-.31.119-.564.414-.564.657 0 .243-.27.711-.6 1.041-.33.33-.6 1.133-.6 1.784 0 .684-.254 1.281-.6 1.414-.33.127-.6.639-.6 1.139 0 .499-.27 1.132-.6 1.406-.33.274-.6.823-.6 1.22 0 .398-.242.965-.539 1.261-.296.297-.669 1.235-.829 2.087-.159.851-.547 1.804-.861 2.118-.314.314-.571 1.259-.571 2.1 0 .99-.212 1.61-.6 1.759-.408.156-.6.796-.6 2s-.192 1.843-.6 2c-.371.142-.6.75-.6 1.593 0 .75-.27 1.588-.6 1.862-.339.282-.6 1.154-.6 2.006 0 .899-.219 1.592-.541 1.716-.336.129-.626 1.137-.764 2.658-.122 1.347-.446 2.72-.719 3.049-.274.33-.585 1.988-.691 3.685-.107 1.698-.439 3.441-.739 3.875-.3.434-.552 1.784-.559 3-.007 1.307-.253 2.529-.6 2.987-.789 1.044-.889 44.93-.105 46.35.265.481.601 2.108.745 3.616.145 1.509.443 2.859.664 3 .22.142.487 1.646.593 3.344.107 1.697.418 3.355.692 3.685.273.329.597 1.702.719 3.049.138 1.521.428 2.529.764 2.658.314.12.546.819.554 1.665.007.801.277 1.806.6 2.233.323.428.587 1.26.587 1.851s.27 1.299.6 1.573c.346.287.6 1.16.6 2.062 0 1.02.208 1.643.6 1.793.37.142.6.751.6 1.589 0 .748.36 2.031.8 2.852.44.82.8 1.9.8 2.398 0 .498.173.906.385.906.211 0 .578.72.815 1.6.237.88.604 1.6.815 1.6.212 0 .385.45.385 1s.143 1 .317 1c.174 0 .534.81.799 1.8.264.99.662 1.8.882 1.8.221 0 .402.171.402.38s.527 1.161 1.171 2.115c.644.954 1.294 2.224 1.443 2.82.15.597.523 1.085.829 1.085.353 0 .557.443.557 1.213 0 .708.249 1.308.6 1.442.33.127.6.667.6 1.2 0 .534.27 1.074.6 1.2.33.127.6.462.6.745s.27.618.6.745c.33.126.6.585.6 1.019 0 .434.183.902.406 1.04.223.138.664.868.98 1.623.315.755.762 1.373.994 1.373.231 0 .42.251.42.557 0 .307.27.661.6.788.33.126.6.601.6 1.055 0 .454.27.929.6 1.055.33.127.6.487.6.8 0 .314.27.674.6.8.33.127.6.445.6.706 0 .602.905 1.775 3.261 4.227 1.024 1.065 1.981 2.313 2.127 2.774.146.461.434.838.639.838.205 0 .373.276.373.613 0 .336.27.716.6.842.33.127.6.407.6.624 0 .216 1.215 1.619 2.7 3.117 1.485 1.499 3.15 3.323 3.7 4.055 2.02 2.687 11.389 11.549 12.209 11.549.325 0 .591.27.591.6 0 .33.169.6.375.6.207 0 .967.54 1.689 1.2.723.66 1.533 1.2 1.8 1.2.268 0 1.685 1.17 3.151 2.6 1.466 1.43 2.922 2.6 3.237 2.6.315 0 .677.27.803.6.127.33.47.6.763.6.293 0 1.124.54 1.846 1.2.723.66 1.535 1.2 1.805 1.2s.635.243.811.54c.176.296.801.791 1.388 1.1.588.308 1.938 1.01 3 1.56 1.063.549 2.076 1.224 2.252 1.5.176.275.742.5 1.257.5.516 0 1.041.27 1.168.6.126.33.646.6 1.154.6.508 0 1.231.36 1.608.8.377.44 1.028.8 1.446.8.419 0 .865.27.992.6.126.33.506.6.842.6.337 0 .613.177.613.392 0 .216.437.502.971.636.534.135 1.068.498 1.188.808.119.31.65.564 1.179.564.53 0 1.188.27 1.462.6.274.33.791.606 1.149.613.358.007 1 .277 1.427.6.428.323 1.17.587 1.651.587.481 0 1.099.27 1.373.6.274.33.794.6 1.155.6s1.329.36 2.149.8c.821.44 2.014.8 2.652.8.661 0 1.257.258 1.389.6.153.398.781.6 1.871.6.925 0 1.903.262 2.241.6.33.33 1.105.6 1.723.6.617 0 1.346.27 1.62.6.3.362 1.176.6 2.206.6 1.066 0 1.786.203 1.916.54.121.316 1.094.634 2.343.766 1.174.124 2.675.51 3.335.857.693.365 2.214.638 3.6.647 1.47.01 2.701.243 3.176.603.428.323 1.532.587 2.455.587s2.193.269 2.823.598c1.706.889 49.994.904 51.17.015.427-.323 1.618-.593 2.647-.6 1.116-.008 2.114-.255 2.472-.613.403-.403 1.429-.604 3.128-.614 1.657-.008 3.081-.28 4.129-.786.88-.425 2.371-.779 3.313-.786 1.143-.009 1.789-.213 1.942-.614.153-.397.791-.604 1.888-.611 1.207-.008 2.015-.308 2.976-1.105l1.32-1.095-.484-2.932c-.281-1.698-.71-3.018-1.02-3.137-.316-.121-.535-.823-.535-1.714 0-.852-.261-1.724-.6-2.006-.33-.274-.6-.994-.6-1.6 0-.606-.27-1.326-.6-1.6-.33-.274-.6-1.003-.6-1.62 0-.618-.27-1.393-.6-1.723-.33-.33-.6-1.14-.6-1.8 0-.66-.265-1.465-.589-1.789-.324-.324-.705-1.315-.847-2.204-.142-.888-.507-1.71-.811-1.827-.318-.122-.553-.78-.553-1.548 0-.735-.264-1.685-.587-2.113-.323-.427-.593-1.097-.6-1.489-.007-.391-.283-.816-.613-.942-.388-.149-.6-.769-.6-1.759 0-.841-.27-1.799-.6-2.129-.33-.33-.6-.742-.6-.916 0-1.349-2.555-2.368-4.02-1.604-.561.293-1.988.647-3.17.787s-2.292.485-2.465.765c-.205.332-1.545.561-3.83.653-2.468.1-3.61.308-3.835.7-.247.432-1.484.558-5.471.558-4.046 0-5.281.129-5.752.6-.495.495-2.064.6-8.979.6-6.961 0-8.464-.102-8.878-.6-.395-.476-1.553-.6-5.6-.6-3.883 0-5.213-.134-5.566-.56-.312-.375-1.584-.605-3.864-.7-2.192-.09-3.511-.321-3.715-.651-.173-.28-1.292-.616-2.485-.745-1.194-.129-3.076-.651-4.183-1.16-1.107-.509-2.547-1.055-3.2-1.214-.653-.159-1.542-.533-1.976-.83-.434-.297-1.475-.54-2.313-.54-.985 0-1.604-.212-1.753-.6-.127-.33-.639-.6-1.139-.6-.499 0-1.132-.27-1.406-.6-.274-.33-.814-.6-1.2-.6s-.926-.27-1.2-.6c-.274-.33-.881-.601-1.349-.603-.468-.001-1.391-.36-2.051-.797-.66-.437-1.515-.796-1.9-.797-.385-.002-.7-.18-.7-.395 0-.216-.493-.517-1.096-.668-.603-.151-1.336-.515-1.629-.807-.293-.293-.86-.533-1.261-.533-.401 0-.832-.27-.959-.6-.126-.33-.686-.6-1.242-.6-.609 0-1.013-.227-1.013-.568 0-.313-.525-.684-1.167-.825-.641-.141-1.266-.515-1.387-.831-.122-.317-.565-.576-.984-.576-.42 0-.988-.27-1.262-.6-.274-.33-.727-.6-1.006-.6-.28 0-.612-.27-.739-.6-.126-.33-.463-.6-.747-.6s-.963-.54-1.508-1.2c-.545-.66-1.224-1.2-1.508-1.2-.284 0-.621-.27-.747-.6-.127-.33-.436-.605-.688-.611-.251-.006-.987-.552-1.636-1.212-.648-.661-1.593-1.305-2.1-1.433-.506-.127-.921-.481-.921-.787 0-.307-.186-.557-.413-.557-.228 0-.942-.54-1.587-1.2-.645-.66-1.359-1.2-1.587-1.2-.227 0-.413-.27-.413-.6 0-.33-.166-.6-.37-.6-.413 0-6.02-5.494-6.047-5.925-.009-.151-.549-.717-1.2-1.256-.651-.54-1.183-1.215-1.183-1.5 0-.286-.27-.519-.6-.519-.33 0-.608-.225-.617-.5-.009-.275-.549-.942-1.2-1.481-.651-.54-1.183-1.187-1.183-1.439s-.315-.834-.7-1.295c-.385-.46-1.33-1.596-2.1-2.523-.77-.928-1.625-1.916-1.9-2.196-.275-.28-.5-.792-.5-1.137 0-.346-.249-.629-.553-.629-.305 0-.659-.315-.789-.7a7.603 7.603 0 0 0-.604-1.3c-.203-.33-.613-1.126-.911-1.769-1.006-2.166-1.331-2.631-1.838-2.631-.278 0-.505-.456-.505-1.013 0-.556-.27-1.116-.6-1.242-.33-.127-.6-.639-.6-1.139 0-.499-.27-1.132-.6-1.406-.33-.274-.6-.823-.6-1.22 0-.398-.24-.962-.533-1.255-.292-.293-.656-1.026-.807-1.629-.151-.603-.452-1.096-.668-1.096-.215 0-.392-.281-.392-.625 0-.559-1.443-4.053-2.425-5.87-.206-.382-.375-.972-.375-1.312 0-.34-.27-.722-.6-.848-.405-.156-.6-.792-.6-1.959 0-1.003-.252-1.981-.6-2.329-.33-.33-.6-.876-.6-1.214 0-.779-1.562-4.768-1.973-5.039-.17-.112-.408-1.318-.528-2.679-.12-1.361-.507-2.886-.859-3.389-.451-.645-.64-1.816-.64-3.976 0-2.113-.171-3.204-.551-3.519-.425-.353-.594-2.401-.737-8.949-.128-5.812-.351-8.835-.708-9.58-.435-.907-.429-1.2.037-1.761.428-.514.589-2.577.688-8.787.102-6.422.248-8.213.7-8.588.409-.34.571-1.399.571-3.736 0-2.343.18-3.519.64-4.176.352-.503.737-1.981.855-3.286.119-1.304.461-2.575.76-2.824.3-.249.545-.779.545-1.179s.164-.829.365-.953c.201-.125.485-.935.631-1.801.147-.866.522-1.787.835-2.047.329-.273.569-1.191.569-2.174 0-1.025.239-1.9.6-2.2.33-.274.6-.825.6-1.225 0-.4.166-.83.369-.956.203-.125.485-.754.626-1.396.141-.642.501-1.371.799-1.618.299-.248.663-1.161.81-2.028.146-.867.427-1.577.624-1.577.196 0 .481-.493.632-1.096.151-.603.515-1.336.807-1.629.293-.293.533-.86.533-1.261 0-.401.27-.832.6-.959.33-.126.6-.691.6-1.255s.27-1.129.6-1.255c.342-.132.6-.728.6-1.388 0-.718.21-1.157.553-1.157.305 0 .669-.315.81-.7.141-.385.698-1.42 1.237-2.3.54-.88 1.161-2.005 1.381-2.5.219-.495.584-.9.809-.9.226 0 .41-.251.41-.557 0-.307.27-.661.6-.788.33-.126.6-.491.6-.809 0-.319.16-.639.356-.713.483-.18 3.644-4.221 3.644-4.658 0-.191.81-1.205 1.8-2.253s1.8-1.963 1.8-2.034c0-.23 3.361-3.847 5.145-5.536.959-.909 2.6-2.507 3.646-3.552 1.046-1.045 2.106-1.9 2.356-1.9.249 0 .453-.27.453-.6 0-.33.27-.6.6-.6.33 0 .6-.25.6-.557 0-.306.405-.66.9-.787s1.387-.687 1.983-1.244c.595-.556 1.21-1.012 1.366-1.012.156 0 .569-.265.917-.589a85.03 85.03 0 0 1 2.188-1.9 79.023 79.023 0 0 0 2.3-2.011c.41-.385.904-.7 1.097-.7.193 0 .575-.27.849-.6.274-.33.842-.6 1.262-.6.419 0 .867-.27.993-.6.127-.33.544-.6.927-.6.382 0 1.111-.36 1.618-.8.507-.44 1.171-.8 1.474-.8.303 0 .655-.27.781-.6.127-.33.667-.6 1.2-.6.534 0 1.074-.27 1.2-.6.127-.33.558-.6.959-.6.401 0 .999-.27 1.329-.6.33-.33.843-.6 1.139-.6.297 0 .895-.247 1.329-.549.434-.302 1.365-.674 2.068-.827 2.747-.598 4.667-4.021 3.121-5.567-.33-.33-.6-1.041-.6-1.579 0-.539-.27-1.204-.6-1.478-.33-.274-.601-1.061-.603-1.749-.001-.688-.36-1.791-.797-2.451-.437-.66-.796-1.517-.797-1.905-.002-.388-.177-1.018-.389-1.4-.904-1.627-2.014-4.51-2.014-5.23 0-.429-.27-.883-.6-1.01-.397-.152-.6-.779-.6-1.855s-.203-1.703-.6-1.855c-.334-.128-.6-.723-.6-1.339 0-.609-.27-1.332-.6-1.606-.33-.274-.6-.849-.6-1.278 0-.428-.27-1.049-.6-1.379-.33-.33-.6-1.177-.6-1.883 0-.705-.247-1.637-.549-2.071-.302-.434-.676-1.374-.832-2.089-.327-1.503-4.264-1.998-5.562-.7m54.903 44.973c-3.093.129-5.681.422-6 .678-.308.249-1.806.581-3.328.74-1.523.158-3.053.437-3.4.619-.866.455-4.312 1.469-6.118 1.801-.817.15-1.694.524-1.949.831-.263.317-1.197.558-2.165.558-1.025 0-1.9.239-2.2.6-.274.33-1.112.6-1.862.6-.843 0-1.451.229-1.593.6-.127.33-.558.6-.959.6-.401 0-.999.27-1.329.6-.33.33-.96.6-1.4.6-.44 0-1.039.24-1.332.533-.293.292-1.026.656-1.629.807-.603.151-1.096.542-1.096.868 0 .406-.425.592-1.357.592-.838 0-1.446.23-1.588.6-.126.33-.65.6-1.162.6-.513 0-1.134.201-1.379.446-.246.246-.81.651-1.254.9-2.744 1.542-4.837 2.968-6.06 4.13-.77.731-1.895 1.552-2.5 1.824-.605.273-1.1.721-1.1.998 0 .276-.276.502-.613.502-.336 0-.716.27-.842.6-.127.33-.381.6-.566.6-.184 0-1.019.629-1.857 1.398-.837.769-1.747 1.399-2.022 1.4-.275.001-.5.272-.5.602 0 .33-.177.6-.393.6-.538 0-3.431 2.86-3.307 3.27.055.181-.125.333-.4.337-.61.008-2.3 1.735-2.3 2.349 0 .244-.27.444-.6.444-.33 0-.6.18-.6.4 0 .419-.448.991-2.586 3.306-.71.769-1.404 1.69-1.54 2.046-.137.356-.435.648-.661.648-.227 0-.413.27-.413.6 0 .33-.27.6-.6.6-.33 0-.6.332-.6.739 0 .406-.373 1.171-.828 1.7-2.141 2.484-2.633 3.088-3.472 4.266-.495.694-.9 1.431-.9 1.636 0 .205-.27.477-.6.604-.33.126-.6.666-.6 1.2 0 .533-.27 1.073-.6 1.2-.33.126-.6.574-.6.993 0 .42-.252.973-.561 1.229-.308.256-.677.93-.82 1.498-.142.567-.52 1.293-.839 1.612-.319.319-.58.94-.58 1.38 0 .44-.27 1.07-.6 1.4-.33.33-.6 1.133-.6 1.784 0 .684-.254 1.281-.6 1.414-.33.127-.6.494-.6.816 0 .323-.27.856-.6 1.186-.33.33-.6 1.198-.6 1.929 0 .812-.233 1.418-.6 1.559-.388.148-.6.768-.6 1.748 0 .836-.36 2.191-.8 3.011-.44.821-.804 1.989-.809 2.595-.006.605-.452 2.176-.992 3.49-.55 1.337-1.101 3.702-1.252 5.373-.149 1.642-.512 3.447-.806 4.011-.775 1.486-.779 26.962-.004 28.447.293.561.644 2.216.781 3.678.136 1.462.416 2.983.621 3.38.569 1.099 1.661 5.081 1.661 6.057 0 2.074 3.435 3.29 5.411 1.916.434-.302 1.374-.676 2.089-.832.715-.155 1.3-.425 1.3-.6 0-.174.743-.436 1.651-.581.908-.145 2.028-.528 2.489-.851.461-.323 1.161-.587 1.557-.587.395 0 1.73-.54 2.967-1.2 1.237-.66 2.673-1.2 3.192-1.2.572 0 .944-.236.944-.6 0-.441.458-.6 1.724-.6.947 0 2.072-.264 2.5-.587.427-.323 1.147-.593 1.6-.6.452-.007 1.172-.277 1.6-.6.427-.323 1.049-.593 1.382-.6.333-.007 1.278-.373 2.098-.813.821-.44 1.854-.8 2.295-.8.445 0 .801-.266.801-.6 0-.404.404-.6 1.24-.6h1.24l-.14-5.18c-.093-3.443-.308-5.348-.64-5.68-.736-.736-.668-10.44.088-12.54.319-.885.585-3.081.594-4.913.014-2.563.154-3.364.618-3.542.407-.157.6-.795.6-1.989 0-.995.348-2.408.8-3.252.44-.82.8-1.913.8-2.427s.27-1.204.6-1.534c.33-.33.6-1.198.6-1.929 0-.812.233-1.418.6-1.559.33-.126.6-.484.6-.793 0-.31.27-.788.6-1.062.33-.274.6-.836.6-1.249 0-.413.27-.751.6-.751.33 0 .6-.338.6-.751s.27-.975.6-1.249c.33-.274.6-.671.6-.882 0-.211.63-1.152 1.4-2.092.77-.94 1.4-1.833 1.4-1.986 0-.153.405-.675.9-1.159 1.171-1.147 2.7-3.335 2.7-3.865 0-.229.169-.416.376-.416.208 0 1.316-.9 2.463-2s2.333-2 2.636-2c.303 0 .654-.27.78-.6.127-.33.481-.6.788-.6.306 0 .557-.27.557-.6 0-.33.24-.6.533-.6.294 0 1.059-.535 1.7-1.189.642-.654 1.394-1.194 1.671-1.2.277-.006.812-.371 1.189-.811.377-.44 1.01-.8 1.408-.8.398 0 .828-.27.954-.6.127-.33.549-.6.939-.6.389 0 .932-.27 1.206-.6.274-.33.752-.6 1.062-.6.309 0 .667-.27.793-.6.127-.33.717-.6 1.311-.6.595 0 1.43-.264 1.858-.587.427-.323 1.231-.593 1.787-.6.556-.007 1.366-.256 1.8-.553.434-.298 1.656-.656 2.716-.796 1.059-.141 2.314-.528 2.789-.86.557-.39 1.794-.604 3.497-.604 1.697 0 2.91-.209 3.411-.587 1.121-.848 15.39-.881 16.69-.039.54.35 2.163.616 4.159.681 1.967.064 3.244.271 3.2.518-.04.226.827.566 1.927.756 1.1.189 2.478.598 3.062.908.584.31 1.484.569 2 .576.516.007 1.287.277 1.714.6.428.323 1.263.587 1.858.587.594 0 1.184.27 1.311.6.126.33.428.6.671.6.243 0 .711.27 1.041.6.33.33.947.6 1.372.6.424 0 .771.189.771.421 0 .231.54.609 1.2.839.66.23 1.2.569 1.2.752 0 .184.405.461.9.617.495.155 1.429.797 2.076 1.427.647.629 1.412 1.144 1.7 1.144.288 0 .524.27.524.6 0 .33.251.6.557.6.307 0 .661.27.788.6.126.33.473.6.771.6.797 0 6.684 5.775 6.684 6.557 0 .367.27.772.6.898.33.127.6.481.6.788 0 .306.27.557.6.557.33 0 .6.191.6.424 0 .366 1.05 1.897 3.4 4.957.33.43.6 1.105.6 1.5 0 .396.27.719.6.719.33 0 .6.347.6.771 0 .425.235 1.01.522 1.3.288.291.642.844.788 1.229.354.936 4.73 1.015 5.49.1.274-.33.943-.6 1.487-.6.544 0 1.467-.243 2.051-.539 2.324-1.181 3.921-1.822 5.134-2.061.7-.138 1.487-.51 1.749-.826.262-.316 1.063-.574 1.779-.574s1.526-.27 1.8-.6c.274-.33 1.093-.6 1.82-.6.728 0 1.588-.265 1.912-.589.324-.324 1.338-.709 2.254-.855.916-.147 2.292-.692 3.057-1.211.766-.52 1.902-.945 2.526-.945.623 0 1.348-.258 1.61-.574.262-.316 1.049-.7 1.748-.854 2.268-.498 4.701-4.972 2.705-4.972-.203 0-.487-.54-.632-1.2-.145-.66-.519-1.2-.832-1.2-.359 0-.568-.423-.568-1.151 0-.633-.27-1.375-.6-1.649-.33-.274-.6-.814-.6-1.2s-.27-.926-.6-1.2c-.33-.274-.6-.842-.6-1.262 0-.419-.254-.86-.564-.979-.31-.12-.663-.609-.784-1.088-.121-.479-.992-1.701-1.936-2.716-1.884-2.026-2.52-2.897-3.107-4.255-.214-.495-.574-.9-.799-.9-.226 0-.41-.255-.41-.567 0-.311-.16-.626-.356-.7-.524-.195-3.644-4.239-3.644-4.721 0-.227-.27-.412-.6-.412-.33 0-.6-.206-.6-.458 0-.554-5.443-5.942-6.003-5.942-.218 0-.397-.27-.397-.6 0-.33-.27-.6-.6-.6-.33 0-.6-.27-.6-.6 0-.33-.185-.6-.412-.6-.482 0-4.526-3.12-4.721-3.644-.074-.196-.389-.356-.7-.356-.312 0-.567-.27-.567-.6 0-.33-.275-.6-.611-.6-.336 0-1.243-.576-2.017-1.28-2.55-2.321-6.683-5.12-7.558-5.12-.284 0-.74-.27-1.014-.6-.274-.33-.814-.6-1.2-.6s-.926-.27-1.2-.6c-.274-.33-1.016-.6-1.649-.6-.765 0-1.151-.205-1.151-.61 0-.357-.494-.709-1.191-.848-.655-.131-1.397-.487-1.649-.79-.252-.304-.809-.552-1.238-.552-.428 0-1.049-.27-1.379-.6-.33-.33-.928-.6-1.329-.6-.401 0-.832-.27-.959-.6-.142-.371-.75-.6-1.593-.6-.75 0-1.588-.27-1.862-.6-.315-.38-1.198-.6-2.406-.6-1.249 0-1.981-.19-2.119-.549-.116-.303-.901-.677-1.743-.831-1.846-.34-5.29-1.35-6.164-1.81-.347-.182-1.877-.461-3.4-.619-1.522-.159-3.01-.483-3.306-.72-1.005-.807-14.368-1.17-25.702-.698m5.785 65.427c-.141.367-.747.6-1.559.6-.731 0-1.599.27-1.929.6-.33.33-.771.6-.979.6-.209 0-.604.27-.878.6-.274.33-1.016.6-1.649.6s-1.511.36-1.951.8c-.525.525-1.333.8-2.351.8-.891 0-1.763.255-2.049.6-.305.367-1.182.6-2.262.6-1.198 0-1.837.192-1.993.6-.127.33-.543.6-.926.6-.902 0-2.019 1.245-2.019 2.251 0 .434-.202.991-.448 1.237-.402.402-.067 8.761.638 15.912.181 1.836.455 12.703.899 35.681.232 11.983.438 16.208.811 16.58.623.622.648 2.516.047 3.638-1.042 1.947 3.678 2.983 5.684 1.247.348-.3 1.208-.546 1.913-.546.77 0 1.373-.239 1.511-.6.141-.367.747-.6 1.559-.6.731 0 1.568-.239 1.861-.532.292-.293 1.249-.648 2.125-.791.877-.142 1.653-.437 1.726-.655.073-.218.794-.51 1.603-.65 1.745-.299 4.871-1.7 4.871-2.182 0-.187.585-.396 1.3-.465l1.3-.125v-15.7c0-8.635.135-15.7.3-15.7.165 0 .3.366.3.813 0 .446.27.916.6 1.042.33.127.6.487.6.8 0 .314.27.674.6.8.33.127.6.481.6.788 0 .306.27.557.6.557.33 0 .6.186.6.413 0 .228.495.912 1.1 1.521 1.392 1.401 2.9 3.507 2.9 4.05 0 .229.27.416.6.416.33 0 .6.251.6.557 0 .307.27.661.6.788.33.126.6.506.6.842 0 .337.175.613.39.613.214 0 .665.534 1.003 1.186.337.652 1.329 1.957 2.205 2.9.876.943 1.594 1.945 1.597 2.227.003.281.275.616.605.742.33.127.6.447.6.713 0 1.638 4.467 2.908 5.743 1.632.33-.33.938-.6 1.352-.6.414 0 1.101-.264 1.529-.587.427-.323 1.141-.593 1.587-.6.446-.007 1.166-.257 1.6-.556.434-.299 1.5-.674 2.369-.833.868-.16 1.943-.545 2.389-.857.445-.312 1.197-.567 1.671-.567s1.077-.258 1.339-.574c.262-.316 1.002-.69 1.644-.831.642-.141 1.271-.423 1.396-.626.126-.203.684-.369 1.24-.369 1.294 0 2.511-1.45 2.528-3.011.015-1.355-.951-2.989-1.766-2.989-.294 0-.636-.405-.761-.9s-1.045-1.764-2.044-2.82c-.999-1.056-1.816-2.091-1.816-2.3 0-.209-.27-.38-.6-.38-.33 0-.6-.197-.6-.437s-.315-.849-.7-1.354a49.068 49.068 0 0 1-1.3-1.798 20.095 20.095 0 0 0-1.455-1.819c-.471-.515-1.446-1.759-2.168-2.764-.722-1.006-1.462-1.828-1.645-1.828-.183 0-.332-.276-.332-.613 0-.336-.27-.716-.6-.842-.33-.127-.6-.391-.6-.588 0-.196-.36-.762-.8-1.257-1.716-1.931-2-2.314-2-2.7 0-.22-.27-.4-.6-.4-.33 0-.6-.276-.6-.613 0-.336-.27-.716-.6-.842-.33-.127-.6-.462-.6-.745s-.27-.618-.6-.745c-.33-.126-.6-.487-.6-.802 0-.315-.9-1.491-2-2.614-1.1-1.124-2-2.222-2-2.441 0-.219-.27-.398-.6-.398-.33 0-.6-.32-.6-.711 0-.391-.54-1.302-1.2-2.025-.66-.722-1.2-1.482-1.2-1.689 0-.206-.25-.375-.557-.375-.306 0-.659-.405-.785-.9s-.775-1.496-1.443-2.225c-.668-.728-1.215-1.493-1.215-1.7 0-.206-.25-.375-.557-.375-.306 0-.666-.405-.8-.9-.135-.495-1.009-1.739-1.944-2.763-.934-1.025-2.059-2.322-2.499-2.882-.44-.56-1.004-1.026-1.253-1.037-.25-.01-.569-.333-.71-.718-.499-1.361-1.486-2.9-1.859-2.9-.208 0-.378-.204-.378-.454 0-1.789-5.239-3.351-5.855-1.746m98.431 8.787c-.427.323-1.049.593-1.382.6-.333.007-1.278.373-2.098.813-.821.44-1.924.8-2.452.8-.527 0-1.062.27-1.189.6-.128.334-.724.601-1.342.602-.612 0-2.193.54-3.513 1.198-1.32.658-2.721 1.198-3.113 1.198-.391.001-.816.272-.942.602-.148.384-.764.6-1.711.6-.815 0-1.83.264-2.258.587-.427.323-1.139.593-1.582.6-.443.007-1.478.373-2.298.813-.821.44-1.742.8-2.046.8-.303 0-.776.27-1.05.6-.274.33-1.106.6-1.849.6-.906 0-1.351.189-1.351.573 0 .329-.47.628-1.1.7l-1.1.127-.114 4.55c-.088 3.559.02 4.753.5 5.485.812 1.239.913 13.199.114 13.465-.339.113-.544 1.379-.638 3.933-.087 2.362-.335 3.991-.665 4.367-.289.33-.657 1.5-.817 2.6-.159 1.1-.535 2.355-.835 2.789-.3.434-.545 1.302-.545 1.929 0 .626-.27 1.409-.6 1.739-.33.33-.6 1.198-.6 1.929 0 .812-.233 1.418-.6 1.559-.33.126-.6.601-.6 1.055 0 .454-.27.929-.6 1.055-.33.127-.6.571-.6.988 0 .416-.184.757-.41.757-.225 0-.583.455-.794 1.011-.211.555-.57 1.23-.796 1.5-1.142 1.357-3.202 4.28-3.217 4.565-.009.178-.549.766-1.2 1.305-.683.566-1.183 1.37-1.183 1.9 0 .506-.18.919-.4.919-.22 0-1.12.72-2 1.6-.88.88-1.6 1.78-1.6 2 0 .22-.187.4-.416.4-.469 0-2.448 1.345-3.972 2.699-2.444 2.172-4.53 3.701-5.05 3.701-.309 0-.562.27-.562.6 0 .375-.379.6-1.013.6-.556 0-1.116.27-1.242.6-.127.33-.552.6-.945.6-.393 0-.818.27-.945.6-.126.33-.601.6-1.055.6-.454 0-.929.27-1.055.6-.127.33-.711.6-1.299.6-.587 0-1.423.244-1.857.543-.434.299-1.446.664-2.249.811-.803.147-1.68.532-1.949.857-.309.372-1.211.589-2.453.589-1.376 0-2.032.179-2.193.6-.177.461-.942.6-3.311.6-2.09 0-3.331.189-3.858.587-1.141.864-15.18.876-16.83.015-.702-.366-2.25-.598-3.997-.6-2.044-.001-2.992-.172-3.349-.602-.3-.361-1.175-.6-2.2-.6-1.011 0-1.901-.239-2.191-.589-.269-.325-1.146-.71-1.949-.857-.803-.147-1.815-.512-2.249-.811-.434-.299-1.27-.543-1.857-.543-.588 0-1.172-.27-1.299-.6-.126-.33-.484-.6-.793-.6-.31 0-.788-.27-1.062-.6-.274-.33-.817-.6-1.206-.6-.39 0-.812-.27-.939-.6-.126-.33-.686-.6-1.242-.6-.634 0-1.013-.225-1.013-.6a.6.6 0 0 0-.599-.6c-.329 0-1.296-.63-2.148-1.4-.853-.77-1.753-1.4-2.001-1.4-.249 0-.452-.142-.452-.315 0-.405-3.848-3.285-4.39-3.285-.225 0-.41-.172-.41-.382 0-.496-1.922-2.418-2.418-2.418-.21 0-.382-.251-.382-.557 0-.307-.27-.661-.6-.788-.33-.126-.6-.465-.6-.753s-.54-1.115-1.2-1.838c-.66-.722-1.2-1.407-1.2-1.521 0-.115-.63-.977-1.4-1.917-.77-.94-1.4-1.921-1.4-2.18 0-.259-.27-.575-.6-.701-.33-.127-.6-.577-.6-1 0-.424-.27-.874-.6-1-.33-.127-.6-.558-.6-.959 0-.401-.235-.967-.522-1.257a4.204 4.204 0 0 1-.788-1.229c-.343-.907-4.156-.988-5.314-.113-.427.323-1.101.593-1.498.6-.651.012-1.851.48-5.738 2.242-.694.314-1.644.571-2.113.571-.469 0-.956.27-1.082.6-.149.387-.767.6-1.739.6-.852 0-1.724.261-2.006.6-.274.33-1.093.6-1.82.6-.728 0-1.561.225-1.851.5-.291.275-1.609.847-2.929 1.272-1.32.425-2.734 1.055-3.143 1.4-.409.345-1.088.571-1.51.501-.421-.069-1.368.246-2.104.7-.735.455-1.69.827-2.12.827-1.739 0-3.476 3.764-2.123 4.6.22.136.4.584.4.995 0 .411.261 1.009.58 1.328.319.319.697 1.045.839 1.612.143.568.512 1.242.82 1.498.309.256.561.781.561 1.167s.27.926.6 1.2c.33.274.6.827.6 1.229 0 .402.225.875.5 1.051.528.338 1.255 1.392 1.876 2.72.206.44 1.19 1.7 2.188 2.8.998 1.1 1.819 2.315 1.825 2.7.006.385.281.7.611.7.33 0 .6.276.6.613 0 .336.27.716.6.842.33.127.6.385.6.574 0 .19.63.974 1.4 1.744.77.77 1.408 1.631 1.417 1.914.009.282.549.955 1.2 1.494.651.54 1.183 1.215 1.183 1.5 0 .286.27.519.6.519.33 0 .6.27.6.6 0 .33.173.6.385.6.212 0 1.479 1.08 2.815 2.4 1.336 1.32 2.543 2.4 2.681 2.4.139 0 .537.262.885.581 2.092 1.92 2.468 2.219 2.791 2.219.197 0 .461.27.588.6.126.33.506.6.842.6.337 0 .613.27.613.6 0 .33.331.6.735.6.404 0 1.529.822 2.5 1.827.971 1.005 2.125 1.998 2.565 2.206.44.209 1.34.734 2 1.167.66.433 1.588.96 2.061 1.169.474.21.979.573 1.124.806.144.234.599.425 1.01.425.411 0 1.02.272 1.353.605.333.333 1.145.714 1.803.845.659.132 1.294.49 1.411.795.117.305.649.555 1.183.555.533 0 1.073.27 1.2.6.126.33.698.6 1.271.6s1.311.27 1.641.6c.33.33.928.6 1.329.6.401 0 .832.27.959.6.152.397.779.6 1.855.6s1.703.203 1.855.6c.138.358.74.6 1.494.6.694 0 1.935.36 2.755.8.821.44 1.793.8 2.159.8.808 0 4.861 1.145 5.842 1.65.388.2 1.828.467 3.2.594 1.372.128 3.125.516 3.895.864 2.06.931 30.029.938 31.099.008.4-.348 1.879-.713 3.447-.852 1.51-.133 2.95-.401 3.2-.594.25-.193 1.804-.669 3.454-1.057 1.65-.388 3.74-1.044 4.644-1.459.904-.415 2.187-.754 2.851-.754.664 0 1.431-.27 1.705-.6.274-.33 1.112-.6 1.862-.6.843 0 1.451-.229 1.593-.6.127-.33.558-.6.959-.6.401 0 .999-.27 1.329-.6.33-.33 1.043-.6 1.586-.6.542 0 1.089-.27 1.216-.6.126-.33.691-.6 1.255-.6s1.122-.252 1.24-.561c.119-.308.815-.673 1.548-.81.732-.138 1.552-.515 1.821-.84.269-.324.814-.589 1.211-.589.398 0 .993-.27 1.323-.6.33-.33.694-.6.808-.6.115 0 1.009-.54 1.987-1.2.978-.66 1.901-1.2 2.052-1.2.15 0 1.308-.9 2.573-2 1.264-1.1 2.51-2 2.768-2s.469-.27.469-.6c0-.33.225-.601.5-.602.275-.001 1.158-.586 1.962-1.3 1.994-1.77 3.239-2.698 3.619-2.698.176 0 .319-.27.319-.6 0-.33.27-.6.6-.6.33 0 .6-.27.6-.6 0-.33.185-.6.411-.6.225 0 1.22-.81 2.21-1.8s1.975-1.8 2.19-1.8c.214 0 .389-.251.389-.557 0-.307.27-.661.6-.788.33-.126.6-.506.6-.842 0-.337.27-.613.6-.613.33 0 .601-.225.602-.5.001-.275.631-1.185 1.4-2.022.769-.838 1.398-1.673 1.398-1.857 0-.185.27-.439.6-.566.33-.126.6-.506.6-.842 0-.337.27-.613.6-.613.33 0 .6-.338.6-.751s.27-.975.6-1.249c.33-.274.6-.746.6-1.049 0-.303.27-.551.6-.551.33 0 .6-.169.6-.375 0-.207.547-.972 1.215-1.7.668-.729 1.314-1.717 1.436-2.196.122-.479.475-.968.785-1.088.31-.119.564-.56.564-.979 0-.42.27-.988.6-1.262.33-.274.6-.814.6-1.2s.27-.926.6-1.2c.33-.274.6-1.016.6-1.649 0-.756.206-1.151.6-1.151.33 0 .6-.228.6-.506s.36-1.178.8-1.998c.44-.821.8-1.924.8-2.452 0-.527.27-1.062.6-1.189.33-.126.6-.518.6-.871s.27-.911.6-1.241c.33-.33.6-1.198.6-1.929 0-.812.233-1.418.6-1.559.424-.162.6-.824.6-2.255s.176-2.093.6-2.255c.33-.127.6-.667.6-1.199 0-.533.514-2.539 1.143-4.458.629-1.918 1.263-4.568 1.411-5.888.147-1.32.524-3.12.839-4 .83-2.322.863-26.199.04-28.686-.312-.943-.77-3.064-1.019-4.714-.248-1.65-.892-4.226-1.432-5.724-.54-1.498-.982-3.067-.982-3.486 0-1.505-3.449-2.194-5.024-1.003" fill="#393939"/><path d="M194.662 96.7c-.102.165 2.03.3 4.738.3 2.708 0 4.84-.135 4.738-.3-.102-.165-2.234-.3-4.738-.3-2.504 0-4.636.135-4.738.3M174.128 180c0 1.43.073 2.015.161 1.3.089-.715.089-1.885 0-2.6-.088-.715-.161-.13-.161 1.3m1.203 29c.002 1.54.074 2.121.161 1.291.087-.83.085-2.09-.003-2.8-.089-.71-.16-.031-.158 1.509m21.785 95.697c1.383.078 3.543.077 4.8-.002 1.256-.079.124-.143-2.516-.142-2.64 0-3.668.065-2.284.144" fill="gray"/><path d="M268.8 100.925c0 .069.585.654 1.3 1.3l1.3 1.175-1.175-1.3c-1.095-1.212-1.425-1.484-1.425-1.175M78.893 203.6c0 .77.082 1.085.183.7.1-.385.1-1.015 0-1.4-.101-.385-.183-.07-.183.7" fill="teal"/></g></svg>